<svg width="64" height="64" viewBox="0 0 64 64" fill="none" xmlns="http://www.w3.org/2000/svg">
<path d="M47.9998 28C46.3998 29.2 46.3993 29.1993 46.3993 29.1993L46.4065 29.2092L46.4581 29.2817C46.506 29.3502 46.5791 29.4572 46.6691 29.5972C46.85 29.8786 47.0934 30.2842 47.336 30.7694C47.8419 31.7812 48.2498 32.9532 48.2498 34C48.2498 35.0469 47.8419 36.2188 47.336 37.2306C47.0934 37.7158 46.85 38.1215 46.6691 38.4029C46.5791 38.5428 46.506 38.6498 46.4581 38.7183L46.4065 38.7908L46.3993 38.8007C46.3993 38.8007 46.3998 38.8 47.9998 40C49.5998 41.2 49.6025 41.1964 49.6025 41.1964L49.606 41.1917L49.6155 41.179L49.6437 41.1404C49.6666 41.1089 49.6974 41.0659 49.735 41.0122C49.8101 40.9049 49.9128 40.7541 50.0338 40.5659C50.2747 40.1911 50.5938 39.6592 50.9137 39.0194C51.5328 37.7812 52.2498 35.9532 52.2498 34C52.2498 32.0469 51.5328 30.2188 50.9137 28.9806C50.5938 28.3408 50.2747 27.809 50.0338 27.4341C49.9128 27.2459 49.8101 27.0952 49.735 26.9879C49.6974 26.9341 49.6666 26.8912 49.6437 26.8596L49.6155 26.821L49.606 26.8083L49.6004 26.8008C49.6004 26.8008 49.5998 26.8 47.9998 28Z" fill="white"/>
<path fill-rule="evenodd" clip-rule="evenodd" d="M0 32C0 14.3269 14.3269 0 32 0C49.6731 0 64 14.3269 64 32C64 49.6731 49.6731 64 32 64C14.3269 64 0 49.6731 0 32ZM32 4C16.536 4 4 16.536 4 32C4 47.464 16.536 60 32 60C35.9687 60 39.7446 59.1743 43.1653 57.6853L23.1831 35.8866L50.2438 10.7588C45.3435 6.54607 38.9691 4 32 4ZM60 32C60 42.0197 54.737 50.8102 46.8247 55.7579L28.8173 36.1134L53.0865 13.5777C57.3915 18.5013 60 24.946 60 32Z" fill="white"/>
</svg>
