<svg width="22" height="22" viewBox="0 0 22 22" fill="none" xmlns="http://www.w3.org/2000/svg">
<path d="M16.4999 9.625C15.9499 10.0375 15.9498 10.0373 15.9498 10.0373L15.9522 10.0407L15.97 10.0656C15.9864 10.0891 16.0116 10.1259 16.0425 10.174C16.1047 10.2708 16.1884 10.4102 16.2717 10.577C16.4457 10.9248 16.5859 11.3276 16.5859 11.6875C16.5859 12.0474 16.4457 12.4502 16.2717 12.798C16.1884 12.9648 16.1047 13.1043 16.0425 13.201C16.0116 13.2491 15.9864 13.2859 15.97 13.3094L15.9522 13.3343L15.9498 13.3378C15.9498 13.3378 15.9499 13.3375 16.4999 13.75C17.0499 14.1625 17.0509 14.1613 17.0509 14.1613L17.0521 14.1597L17.0553 14.1553L17.065 14.142C17.0729 14.1312 17.0835 14.1164 17.0964 14.0979C17.1222 14.061 17.1575 14.0092 17.1991 13.9445C17.2819 13.8157 17.3916 13.6329 17.5016 13.4129C17.7144 12.9873 17.9609 12.3589 17.9609 11.6875C17.9609 11.0161 17.7144 10.3877 17.5016 9.96208C17.3916 9.74214 17.2819 9.55933 17.1991 9.43048C17.1575 9.36578 17.1222 9.31396 17.0964 9.27707C17.0835 9.25861 17.0729 9.24384 17.065 9.233L17.0553 9.21972L17.0521 9.21534L17.0502 9.21277C17.0502 9.21277 17.0499 9.2125 16.4999 9.625Z" fill="white"/>
<path fill-rule="evenodd" clip-rule="evenodd" d="M0 11C0 4.92487 4.92487 0 11 0C17.0751 0 22 4.92487 22 11C22 17.0751 17.0751 22 11 22C4.92487 22 0 17.0751 0 11ZM11 1.375C5.68426 1.375 1.375 5.68426 1.375 11C1.375 16.3157 5.68426 20.625 11 20.625C12.3643 20.625 13.6622 20.3412 14.8381 19.8293L7.96919 12.336L17.2713 3.69833C15.5868 2.25021 13.3956 1.375 11 1.375ZM20.625 11C20.625 14.4443 18.8159 17.466 16.096 19.1668L9.90595 12.414L18.2485 4.66734C19.7283 6.35981 20.625 8.57519 20.625 11Z" fill="white"/>
</svg>
