<svg width="127" height="32" viewBox="0 0 127 32" fill="none" xmlns="http://www.w3.org/2000/svg">
<g clip-path="url(#clip0_1_377)">
<path d="M112.846 7.58134L117.692 18.486L122.537 7.58134H126.592C125.763 9.42475 116.979 29.1181 116.966 29.144C115.891 31.5716 113.028 32.6751 110.618 31.5846L109.335 31.0134L110.838 27.6381L111.369 27.8718C112.367 28.3132 113.546 27.8588 113.986 26.8592C113.986 26.8462 115.671 23.0556 115.671 23.0556L108.778 7.58134H112.846ZM95.5507 0V9.1002C96.924 8.13955 98.6082 7.56836 100.409 7.56836C105.099 7.56836 108.908 11.385 108.908 16.0844C108.908 20.7838 105.099 24.6004 100.409 24.6004C98.6082 24.6004 96.924 24.0292 95.5507 23.0686V24.5744H91.8196V0H95.5507ZM74.0835 7.56836C78.7734 7.56836 82.5823 11.385 82.5823 16.0844C82.5823 20.7838 78.7734 24.6004 74.0835 24.6004C69.3937 24.6004 65.5847 20.7838 65.5847 16.0844C65.5847 11.385 69.3937 7.56836 74.0835 7.56836ZM35.1524 0V24.5744H31.5378C24.788 24.5744 19.2819 19.0572 19.2819 12.2937C19.2819 5.53022 24.788 0 31.5378 0H35.1524ZM3.89082 0C10.6406 0 16.1467 5.51724 16.1467 12.2807C16.1467 19.0442 10.6406 24.5615 3.89082 24.5615H0.276245V0H3.89082ZM51.4374 0C58.2001 0 63.6933 5.51724 63.6933 12.2807C63.6933 19.0572 58.1872 24.5615 51.4374 24.5615H42.5758V0H51.4374ZM88.7103 0V24.5744H84.992V0H88.7103ZM100.409 10.9176C98.1548 10.9176 96.2244 12.3846 95.5507 14.4357C95.3823 14.942 95.2916 15.4872 95.2916 16.0584C95.2916 16.6166 95.3823 17.1619 95.5507 17.6811C96.2244 19.7193 98.1418 21.1992 100.409 21.1992C103.22 21.1992 105.526 18.9144 105.526 16.0714C105.539 13.2414 103.22 10.9176 100.409 10.9176ZM74.0835 10.9176C71.2722 10.9176 68.9661 13.2024 68.9661 16.0454C68.9661 18.8625 71.2463 21.1732 74.0835 21.1732C76.8949 21.1732 79.2009 18.8884 79.2009 16.0454C79.2009 13.2284 76.8949 10.9176 74.0835 10.9176ZM51.4374 3.72576H46.2941V20.8487H51.4374C56.1402 20.8487 59.975 17.0061 59.975 12.2937C59.975 7.58134 56.1402 3.72576 51.4374 3.72576Z" fill="white"/>
</g>
<defs>
<clipPath id="clip0_1_377">
<rect width="126.316" height="32" fill="white" transform="translate(0.276245)"/>
</clipPath>
</defs>
</svg>
