<svg width="25" height="24" viewBox="0 0 25 24" fill="none" xmlns="http://www.w3.org/2000/svg">
<g clip-path="url(#clip0_1_733)">
<path d="M12.4923 0.000976562C5.58958 0.000976562 -0.0078125 5.50242 -0.0078125 12.2891C-0.0078125 17.7183 3.57385 22.3244 8.54052 23.9492C9.16524 24.063 9.39459 23.6827 9.39459 23.3581C9.39459 23.0651 9.383 22.0971 9.37761 21.0703C5.90007 21.8136 5.16627 19.6205 5.16627 19.6205C4.59765 18.2001 3.77836 17.8225 3.77836 17.8225C2.64423 17.0598 3.86385 17.0755 3.86385 17.0755C5.11908 17.1622 5.78002 18.3418 5.78002 18.3418C6.8949 20.2203 8.70426 19.6772 9.41757 19.3633C9.52976 18.5691 9.85371 18.027 10.2112 17.7201C7.43475 17.4094 4.5161 16.3557 4.5161 11.6473C4.5161 10.3057 5.0044 9.20952 5.80403 8.34898C5.67424 8.03948 5.24638 6.78967 5.92512 5.09707C5.92512 5.09707 6.9748 4.76682 9.36354 6.35665C10.3606 6.08439 11.43 5.94785 12.4923 5.94317C13.5546 5.94785 14.6248 6.08439 15.6237 6.35665C18.0096 4.76682 19.0578 5.09707 19.0578 5.09707C19.7382 6.78967 19.3101 8.03948 19.1803 8.34898C19.9818 9.20952 20.4668 10.3057 20.4668 11.6473C20.4668 16.3669 17.5426 17.4061 14.7591 17.7103C15.2075 18.0917 15.607 18.8395 15.607 19.9859C15.607 21.6301 15.5925 22.9534 15.5925 23.3581C15.5925 23.6851 15.8175 24.0683 16.4511 23.9476C21.4151 22.3209 24.9922 17.7164 24.9922 12.2891C24.9922 5.50242 19.3956 0.000976562 12.4923 0.000976562ZM4.67388 17.5056C4.64635 17.5667 4.54865 17.585 4.45964 17.5431C4.36898 17.503 4.31806 17.4198 4.34745 17.3585C4.37436 17.2956 4.47227 17.2781 4.56273 17.3203C4.6536 17.3603 4.70535 17.4444 4.67388 17.5056ZM5.28875 18.045C5.22913 18.0993 5.11259 18.0741 5.03352 17.9882C4.95176 17.9025 4.93644 17.788 4.99688 17.7328C5.05836 17.6785 5.17138 17.7039 5.25335 17.7896C5.33512 17.8763 5.35105 17.99 5.28875 18.045ZM5.71057 18.735C5.63398 18.7873 5.50875 18.7383 5.43133 18.629C5.35474 18.5197 5.35474 18.3887 5.43299 18.3362C5.51061 18.2837 5.63398 18.3309 5.71243 18.4394C5.78882 18.5505 5.78882 18.6815 5.71057 18.735ZM6.42396 19.5342C6.35544 19.6085 6.20951 19.5885 6.1027 19.4872C5.99341 19.3881 5.96298 19.2475 6.0317 19.1732C6.10105 19.0987 6.24781 19.1197 6.35545 19.2202C6.46391 19.3191 6.49703 19.4607 6.42396 19.5342ZM7.34595 19.804C7.31573 19.9003 7.17518 19.944 7.03359 19.9031C6.89221 19.861 6.79969 19.7482 6.82825 19.651C6.85764 19.5541 6.99882 19.5085 7.14144 19.5523C7.28261 19.5942 7.37534 19.7061 7.34595 19.804ZM8.39521 19.9184C8.39873 20.0198 8.27867 20.1038 8.13005 20.1056C7.9806 20.1089 7.85971 20.0269 7.85805 19.9272C7.85805 19.8248 7.97542 19.7416 8.12487 19.7392C8.2735 19.7363 8.39521 19.8177 8.39521 19.9184ZM9.42599 19.8796C9.44379 19.9785 9.3405 20.08 9.19291 20.1071C9.04781 20.1331 8.91347 20.0721 8.89504 19.974C8.87704 19.8727 8.98219 19.7711 9.12709 19.7449C9.27488 19.7197 9.40715 19.7791 9.42599 19.8796Z" fill="white"/>
</g>
<defs>
<clipPath id="clip0_1_733">
<rect width="25" height="24" fill="white"/>
</clipPath>
</defs>
</svg>
