<svg width="103" height="32" viewBox="0 0 103 32" fill="none" xmlns="http://www.w3.org/2000/svg">
<g clip-path="url(#clip0_1_366)">
<path d="M12.9239 11.4182V14.8364H21.173C20.954 16.7273 20.297 18.1818 19.275 19.1273C18.107 20.2909 16.209 21.6 12.9239 21.6C7.88692 21.6 3.94489 17.5273 3.94489 12.5091C3.94489 7.49091 7.81392 3.41818 12.9239 3.41818C15.625 3.41818 17.669 4.50909 19.129 5.89091L21.538 3.49091C19.494 1.52727 16.72 0 12.9239 0C5.9889 0 0.148865 5.6 0.148865 12.5091C0.148865 19.4182 5.9889 25.0182 12.9239 25.0182C16.647 25.0182 19.494 23.7818 21.684 21.5273C23.947 19.2727 24.677 16.0727 24.677 13.5273C24.677 12.7273 24.604 12 24.531 11.4182H12.9239Z" fill="white"/>
<path d="M34.8952 8.58154C30.4422 8.58154 26.7192 11.9997 26.7192 16.6543C26.7192 21.3088 30.3692 24.727 34.8952 24.727C39.4213 24.727 43.0713 21.3815 43.0713 16.727C43.0713 11.9997 39.4213 8.58154 34.8952 8.58154ZM34.8952 21.5997C32.4132 21.5997 30.2962 19.5634 30.2962 16.727C30.2962 13.8179 32.4132 11.8543 34.8952 11.8543C37.3772 11.8543 39.4943 13.8179 39.4943 16.727C39.4943 19.5634 37.3772 21.5997 34.8952 21.5997Z" fill="white"/>
<path d="M74.8268 10.3997H74.6808C73.8777 9.45427 72.3447 8.58154 70.3737 8.58154C66.2857 8.58154 62.7817 12.0725 62.7817 16.6543C62.7817 21.1634 66.2857 24.727 70.3737 24.727C72.3447 24.727 73.8777 23.8543 74.6808 22.9088H74.8268V24.0725C74.8268 27.127 73.1477 28.7997 70.5197 28.7997C68.3297 28.7997 67.0157 27.2725 66.4317 25.8906L63.3657 27.1997C64.2417 29.3088 66.6507 31.9997 70.5927 31.9997C74.7538 31.9997 78.3308 29.527 78.3308 23.5634V9.01791H74.9728V10.3997H74.8268ZM70.7387 21.5997C68.2567 21.5997 66.4317 19.4906 66.4317 16.727C66.4317 13.8906 68.3297 11.8543 70.7387 11.8543C73.1477 11.8543 75.0458 13.9634 75.0458 16.7997C75.1188 19.5634 73.2207 21.5997 70.7387 21.5997Z" fill="white"/>
<path d="M53.0749 8.58178C48.6219 8.58178 44.8989 12 44.8989 16.6545C44.8989 21.3091 48.5489 24.7272 53.0749 24.7272C57.6009 24.7272 61.251 21.3818 61.251 16.7272C61.251 12 57.6009 8.58178 53.0749 8.58178ZM53.0749 21.6C50.5929 21.6 48.4759 19.5636 48.4759 16.7272C48.4759 13.8181 50.5929 11.8545 53.0749 11.8545C55.5569 11.8545 57.674 13.8181 57.674 16.7272C57.674 19.5636 55.5569 21.6 53.0749 21.6Z" fill="white"/>
<path d="M81.0317 0.36377H84.5357V24.8001H81.0317V0.36377Z" fill="white"/>
<path d="M95.343 21.5997C93.518 21.5997 92.277 20.7997 91.401 19.127L102.278 14.6906L101.913 13.7452C101.256 11.927 99.139 8.58154 94.978 8.58154C90.8169 8.58154 87.3129 11.8543 87.3129 16.6543C87.3129 21.1634 90.7439 24.727 95.343 24.727C99.066 24.727 101.183 22.4725 102.132 21.1634L99.358 19.3452C98.409 20.727 97.168 21.5997 95.343 21.5997ZM95.124 11.6361C96.584 11.6361 97.825 12.3634 98.19 13.3815L90.89 16.4361C90.817 13.0906 93.299 11.6361 95.124 11.6361Z" fill="white"/>
</g>
<defs>
<clipPath id="clip0_1_366">
<rect width="102.128" height="32" fill="white" transform="translate(0.156677)"/>
</clipPath>
</defs>
</svg>
