<svg width="1367" height="907" viewBox="0 0 1367 907" fill="none" xmlns="http://www.w3.org/2000/svg">
<g opacity="0.7">
<circle cx="85.4961" cy="399.96" r="1" fill="#22265E"/>
<circle opacity="0.1" cx="490.285" cy="399.96" r="1" fill="#22265E"/>
<circle cx="948.52" cy="399.96" r="1" fill="#22265E"/>
<circle opacity="0.34" cx="51.7461" cy="249.755" r="1" fill="#22265E"/>
<circle cx="456.566" cy="249.755" r="1" fill="#22265E"/>
<circle cx="914.785" cy="249.755" r="1" fill="#22265E"/>
<circle cx="147.332" cy="399.96" r="1" fill="#3D427E"/>
<circle opacity="0.1" cx="552.145" cy="399.96" r="1" fill="#3D427E"/>
<circle cx="1010.36" cy="399.96" r="1" fill="#3D427E"/>
<circle opacity="0.34" cx="113.598" cy="249.755" r="1" fill="#3D427E"/>
<circle cx="518.402" cy="249.755" r="1" fill="#3D427E"/>
<circle cx="976.629" cy="249.755" r="1" fill="#3D427E"/>
<circle cx="147.332" cy="328.612" r="1" fill="#3D427E"/>
<circle cx="552.145" cy="328.612" r="1" fill="#3D427E"/>
<circle cx="1010.36" cy="328.612" r="1" fill="#3D427E"/>
<circle cx="113.598" cy="178.408" r="1" fill="#3D427E"/>
<circle cx="1.95703" cy="167.397" r="1" fill="#3D427E"/>
<circle cx="518.402" cy="178.408" r="1" fill="#3D427E"/>
<circle opacity="0.3" cx="976.629" cy="178.408" r="1" fill="#3D427E"/>
<circle cx="220.434" cy="306.082" r="1" fill="#3D427E"/>
<circle opacity="0.4" cx="625.23" cy="306.082" r="1" fill="#3D427E"/>
<circle opacity="0.2" cx="1083.45" cy="306.082" r="1" fill="#3D427E"/>
<circle cx="186.691" cy="155.877" r="1" fill="#3D427E"/>
<circle cx="75.0508" cy="144.866" r="1" fill="#3D427E"/>
<circle cx="591.488" cy="155.877" r="1" fill="#3D427E"/>
<circle cx="1049.72" cy="155.877" r="1" fill="#3D427E"/>
<circle opacity="0.34" cx="211.988" cy="257.266" r="1" fill="#3D427E"/>
<circle cx="616.801" cy="257.266" r="1" fill="#3D427E"/>
<circle cx="1075.04" cy="257.266" r="1" fill="#3D427E"/>
<circle cx="178.254" cy="107.061" r="1" fill="#3D427E"/>
<circle cx="66.6133" cy="96.0503" r="1" fill="#3D427E"/>
<circle cx="583.059" cy="107.061" r="1" fill="#3D427E"/>
<circle cx="1041.29" cy="107.061" r="1" fill="#3D427E"/>
<circle cx="391.895" cy="309.837" r="1" fill="#3D427E" fill-opacity="0.5"/>
<circle cx="796.715" cy="309.837" r="1" fill="#3D427E"/>
<circle opacity="0.2" cx="1254.93" cy="309.837" r="1" fill="#3D427E"/>
<circle cx="358.176" cy="159.631" r="1" fill="#3D427E" fill-opacity="0.5"/>
<circle cx="762.98" cy="159.631" r="1" fill="#3D427E"/>
<circle cx="1221.21" cy="159.631" r="1" fill="#3D427E"/>
<circle opacity="0.1" cx="304.754" cy="433.756" r="1" fill="#3D427E"/>
<circle cx="709.559" cy="433.756" r="1" fill="#3D427E"/>
<circle cx="1167.8" cy="433.756" r="1" fill="#3D427E"/>
<circle cx="271.02" cy="283.55" r="1" fill="#3D427E"/>
<circle cx="675.84" cy="283.55" r="1" fill="#3D427E"/>
<circle cx="1134.05" cy="283.55" r="1" fill="#3D427E"/>
<circle cx="296.332" cy="366.164" r="1" fill="#3D427E"/>
<circle opacity="0.4" cx="701.121" cy="366.164" r="1" fill="#3D427E"/>
<circle cx="1159.36" cy="366.164" r="1" fill="#3D427E"/>
<circle cx="262.582" cy="215.959" r="1" fill="#3D427E"/>
<circle opacity="0.3" cx="667.402" cy="215.959" r="1" fill="#3D427E"/>
<circle cx="1125.62" cy="215.959" r="1" fill="#3D427E"/>
<circle cx="417.207" cy="366.164" r="1" fill="#3D427E"/>
<circle cx="875.434" cy="366.164" r="1" fill="#3D427E"/>
<circle cx="822.027" cy="366.164" r="1" fill="#3D427E"/>
<circle cx="1280.24" cy="366.164" r="1" fill="#3D427E"/>
<circle cx="383.457" cy="215.959" r="1" fill="#3D427E" fill-opacity="0.5"/>
<circle opacity="0.3" cx="788.277" cy="215.959" r="1" fill="#3D427E"/>
<circle cx="1246.5" cy="215.959" r="1" fill="#3D427E"/>
<circle opacity="0.34" cx="1" cy="1" r="1" transform="matrix(1 0 0 -1 166.051 13.0098)" fill="#22265E"/>
<circle opacity="0.34" cx="1" cy="1" r="1" transform="matrix(1 0 0 -1 54.4102 2)" fill="#22265E"/>
<circle cx="1" cy="1" r="1" transform="matrix(1 0 0 -1 570.871 13.0098)" fill="#22265E"/>
<circle cx="1" cy="1" r="1" transform="matrix(1 0 0 -1 1029.1 13.0098)" fill="#22265E"/>
<circle opacity="0.34" cx="1" cy="1" r="1" transform="matrix(1 0 0 -1 227.91 13.0098)" fill="#3D427E"/>
<circle opacity="0.34" cx="1" cy="1" r="1" transform="matrix(1 0 0 -1 116.262 2)" fill="#3D427E"/>
<circle cx="1" cy="1" r="1" transform="matrix(1 0 0 -1 632.699 13.0098)" fill="#3D427E"/>
<circle cx="1" cy="1" r="1" transform="matrix(1 0 0 -1 1090.94 13.0098)" fill="#3D427E"/>
<circle cx="1" cy="1" r="1" transform="matrix(1 0 0 -1 227.91 84.3584)" fill="#3D427E"/>
<circle cx="1" cy="1" r="1" transform="matrix(1 0 0 -1 116.262 73.3467)" fill="#3D427E"/>
<circle cx="1" cy="1" r="1" transform="matrix(1 0 0 -1 632.699 84.3584)" fill="#3D427E"/>
<circle opacity="0.3" cx="1" cy="1" r="1" transform="matrix(1 0 0 -1 1090.94 84.3584)" fill="#3D427E"/>
<circle cx="1" cy="1" r="1" transform="matrix(1 0 0 -1 300.996 106.89)" fill="#3D427E"/>
<circle cx="1" cy="1" r="1" transform="matrix(1 0 0 -1 705.793 106.89)" fill="#3D427E"/>
<circle cx="1" cy="1" r="1" transform="matrix(1 0 0 -1 1164.04 106.89)" fill="#3D427E"/>
<circle opacity="0.34" cx="1" cy="1" r="1" transform="matrix(1 0 0 -1 326.301 5.50146)" fill="#3D427E"/>
<circle cx="1" cy="1" r="1" transform="matrix(1 0 0 -1 731.098 5.50146)" fill="#3D427E"/>
<circle cx="1" cy="1" r="1" transform="matrix(1 0 0 -1 1189.35 5.50146)" fill="#3D427E"/>
<circle cx="1" cy="1" r="1" transform="matrix(1 0 0 -1 292.566 155.706)" fill="#3D427E"/>
<circle cx="1" cy="1" r="1" transform="matrix(1 0 0 -1 697.355 155.706)" fill="#3D427E"/>
<circle cx="1" cy="1" r="1" transform="matrix(1 0 0 -1 1155.6 155.706)" fill="#3D427E"/>
<circle cx="1" cy="1" r="1" transform="matrix(1 0 0 -1 472.48 103.134)" fill="#3D427E" fill-opacity="0.5"/>
<circle cx="1" cy="1" r="1" transform="matrix(1 0 0 -1 877.277 103.134)" fill="#3D427E"/>
<circle cx="1" cy="1" r="1" transform="matrix(1 0 0 -1 1335.52 103.134)" fill="#3D427E"/>
<circle cx="1" cy="1" r="1" transform="matrix(1 0 0 -1 376.887 46.8081)" fill="#3D427E"/>
<circle opacity="0.3" cx="1" cy="1" r="1" transform="matrix(1 0 0 -1 781.707 46.8081)" fill="#3D427E"/>
<circle cx="1" cy="1" r="1" transform="matrix(1 0 0 -1 1239.93 46.8081)" fill="#3D427E"/>
<circle cx="1" cy="1" r="1" transform="matrix(1 0 0 -1 497.762 46.8081)" fill="#3D427E" fill-opacity="0.5"/>
<circle opacity="0.3" cx="1" cy="1" r="1" transform="matrix(1 0 0 -1 902.582 46.8081)" fill="#3D427E"/>
<circle cx="1" cy="1" r="1" transform="matrix(1 0 0 -1 1360.8 46.8081)" fill="#3D427E"/>
<circle cx="1" cy="1" r="1" transform="matrix(-1 0 0 1 1282.5 855.796)" fill="#22265E"/>
<circle opacity="0.1" cx="1" cy="1" r="1" transform="matrix(-1 0 0 1 877.715 855.796)" fill="#22265E"/>
<circle cx="1" cy="1" r="1" transform="matrix(-1 0 0 1 738.379 808.296)" fill="#22265E"/>
<circle opacity="0.34" cx="1" cy="1" r="1" transform="matrix(-1 0 0 1 1316.25 705.592)" fill="#22265E"/>
<circle cx="1" cy="1" r="1" transform="matrix(-1 0 0 1 911.434 705.592)" fill="#22265E"/>
<circle cx="1" cy="1" r="1" transform="matrix(-1 0 0 1 453.215 705.592)" fill="#22265E"/>
<circle cx="1" cy="1" r="1" transform="matrix(-1 0 0 1 1220.67 855.796)" fill="#3D427E"/>
<circle opacity="0.1" cx="1" cy="1" r="1" transform="matrix(-1 0 0 1 815.855 855.796)" fill="#3D427E"/>
<circle cx="1" cy="1" r="1" transform="matrix(-1 0 0 1 676.629 808.296)" fill="#3D427E"/>
<circle opacity="0.34" cx="1" cy="1" r="1" transform="matrix(-1 0 0 1 1254.4 705.592)" fill="#3D427E"/>
<circle cx="1" cy="1" r="1" transform="matrix(-1 0 0 1 849.598 705.592)" fill="#3D427E"/>
<circle cx="1" cy="1" r="1" transform="matrix(-1 0 0 1 391.371 705.592)" fill="#3D427E"/>
<circle cx="1" cy="1" r="1" transform="matrix(-1 0 0 1 1220.67 784.449)" fill="#3D427E"/>
<circle cx="1" cy="1" r="1" transform="matrix(-1 0 0 1 815.855 784.449)" fill="#3D427E"/>
<circle cx="1" cy="1" r="1" transform="matrix(-1 0 0 1 357.645 784.449)" fill="#3D427E"/>
<circle cx="1" cy="1" r="1" transform="matrix(-1 0 0 1 1254.4 634.244)" fill="#3D427E"/>
<circle cx="1" cy="1" r="1" transform="matrix(-1 0 0 1 1366.04 623.233)" fill="#3D427E"/>
<circle cx="1" cy="1" r="1" transform="matrix(-1 0 0 1 849.598 634.244)" fill="#3D427E"/>
<circle opacity="0.3" cx="1" cy="1" r="1" transform="matrix(-1 0 0 1 391.371 634.244)" fill="#3D427E"/>
<circle cx="1" cy="1" r="1" transform="matrix(-1 0 0 1 1147.57 761.918)" fill="#3D427E"/>
<circle opacity="0.4" cx="1" cy="1" r="1" transform="matrix(-1 0 0 1 742.77 761.918)" fill="#3D427E"/>
<circle opacity="0.2" cx="1" cy="1" r="1" transform="matrix(-1 0 0 1 284.551 761.918)" fill="#3D427E"/>
<circle cx="1" cy="1" r="1" transform="matrix(-1 0 0 1 1181.31 611.713)" fill="#3D427E"/>
<circle cx="1" cy="1" r="1" transform="matrix(-1 0 0 1 1292.95 600.703)" fill="#3D427E"/>
<circle cx="1" cy="1" r="1" transform="matrix(-1 0 0 1 776.512 611.713)" fill="#3D427E"/>
<circle cx="1" cy="1" r="1" transform="matrix(-1 0 0 1 318.277 611.713)" fill="#3D427E"/>
<circle opacity="0.34" cx="1" cy="1" r="1" transform="matrix(-1 0 0 1 1156.01 713.102)" fill="#3D427E"/>
<circle cx="1" cy="1" r="1" transform="matrix(-1 0 0 1 751.199 713.102)" fill="#3D427E"/>
<circle cx="1" cy="1" r="1" transform="matrix(-1 0 0 1 292.965 713.102)" fill="#3D427E"/>
<circle cx="1" cy="1" r="1" transform="matrix(-1 0 0 1 1189.75 562.896)" fill="#3D427E"/>
<circle cx="1" cy="1" r="1" transform="matrix(-1 0 0 1 1301.39 551.886)" fill="#3D427E"/>
<circle cx="1" cy="1" r="1" transform="matrix(-1 0 0 1 784.941 562.896)" fill="#3D427E"/>
<circle cx="1" cy="1" r="1" transform="matrix(-1 0 0 1 326.715 562.896)" fill="#3D427E"/>
<circle cx="1" cy="1" r="1" transform="matrix(-1 0 0 1 976.105 765.673)" fill="#3D427E" fill-opacity="0.5"/>
<circle cx="1" cy="1" r="1" transform="matrix(-1 0 0 1 571.285 765.673)" fill="#3D427E"/>
<circle opacity="0.2" cx="1" cy="1" r="1" transform="matrix(-1 0 0 1 113.074 765.673)" fill="#3D427E"/>
<circle cx="1" cy="1" r="1" transform="matrix(-1 0 0 1 1009.82 615.468)" fill="#3D427E" fill-opacity="0.5"/>
<circle cx="1" cy="1" r="1" transform="matrix(-1 0 0 1 605.02 615.468)" fill="#3D427E"/>
<circle cx="1" cy="1" r="1" transform="matrix(-1 0 0 1 146.785 615.468)" fill="#3D427E"/>
<circle opacity="0.1" cx="1" cy="1" r="1" transform="matrix(-1 0 0 1 1063.25 889.592)" fill="#3D427E"/>
<circle cx="1" cy="1" r="1" transform="matrix(-1 0 0 1 658.441 889.592)" fill="#3D427E"/>
<circle cx="1" cy="1" r="1" transform="matrix(-1 0 0 1 200.199 889.592)" fill="#3D427E"/>
<circle cx="1" cy="1" r="1" transform="matrix(-1 0 0 1 1096.98 739.386)" fill="#3D427E"/>
<circle cx="1" cy="1" r="1" transform="matrix(-1 0 0 1 692.16 739.386)" fill="#3D427E"/>
<circle cx="1" cy="1" r="1" transform="matrix(-1 0 0 1 233.949 739.386)" fill="#3D427E"/>
<circle cx="1" cy="1" r="1" transform="matrix(-1 0 0 1 1071.67 822)" fill="#3D427E"/>
<circle opacity="0.4" cx="1" cy="1" r="1" transform="matrix(-1 0 0 1 666.879 822)" fill="#3D427E"/>
<circle cx="1" cy="1" r="1" transform="matrix(-1 0 0 1 208.637 822)" fill="#3D427E"/>
<circle cx="1" cy="1" r="1" transform="matrix(-1 0 0 1 1105.42 671.795)" fill="#3D427E"/>
<circle opacity="0.3" cx="1" cy="1" r="1" transform="matrix(-1 0 0 1 700.598 671.795)" fill="#3D427E"/>
<circle cx="1" cy="1" r="1" transform="matrix(-1 0 0 1 242.379 671.795)" fill="#3D427E"/>
<circle cx="1" cy="1" r="1" transform="matrix(-1 0 0 1 950.793 822)" fill="#3D427E"/>
<circle opacity="0.1" cx="1" cy="1" r="1" transform="matrix(-1 0 0 1 877.715 855.796)" fill="#22265E"/>
<circle cx="1" cy="1" r="1" transform="matrix(-1 0 0 1 738.379 808.296)" fill="#22265E"/>
<circle opacity="0.1" cx="1" cy="1" r="1" transform="matrix(-1 0 0 1 815.855 855.796)" fill="#3D427E"/>
<circle cx="1" cy="1" r="1" transform="matrix(-1 0 0 1 676.629 808.296)" fill="#3D427E"/>
<circle cx="1" cy="1" r="1" transform="matrix(-1 0 0 1 1071.67 822)" fill="#3D427E"/>
<circle opacity="0.4" cx="1" cy="1" r="1" transform="matrix(-1 0 0 1 666.879 822)" fill="#3D427E"/>
<circle cx="1" cy="1" r="1" transform="matrix(-1 0 0 1 950.793 822)" fill="#3D427E"/>
<circle opacity="0.1" cx="1" cy="1" r="1" transform="matrix(-1 0 0 1 958.434 904.796)" fill="#22265E"/>
<circle cx="1" cy="1" r="1" transform="matrix(-1 0 0 1 819.098 857.296)" fill="#22265E"/>
<circle opacity="0.1" cx="1" cy="1" r="1" transform="matrix(-1 0 0 1 896.574 904.796)" fill="#3D427E"/>
<circle cx="1" cy="1" r="1" transform="matrix(-1 0 0 1 757.348 857.296)" fill="#3D427E"/>
<circle cx="1" cy="1" r="1" transform="matrix(-1 0 0 1 1152.39 871)" fill="#3D427E"/>
<circle opacity="0.4" cx="1" cy="1" r="1" transform="matrix(-1 0 0 1 747.598 871)" fill="#3D427E"/>
<circle cx="1" cy="1" r="1" transform="matrix(-1 0 0 1 1031.51 871)" fill="#3D427E"/>
<circle cx="1" cy="1" r="1" transform="matrix(-1 0 0 1 492.566 822)" fill="#3D427E"/>
<circle cx="1" cy="1" r="1" transform="matrix(-1 0 0 1 545.973 822)" fill="#3D427E"/>
<circle cx="1" cy="1" r="1" transform="matrix(-1 0 0 1 97.8164 873.296)" fill="#3D427E"/>
<circle cx="1" cy="1" r="1" transform="matrix(-1 0 0 1 381.738 873.296)" fill="#3D427E"/>
<circle cx="1" cy="1" r="1" transform="matrix(-1 0 0 1 435.145 873.296)" fill="#3D427E"/>
<circle cx="1" cy="1" r="1" transform="matrix(-1 0 0 1 87.7617 822)" fill="#3D427E"/>
<circle cx="1" cy="1" r="1" transform="matrix(-1 0 0 1 984.543 671.795)" fill="#3D427E" fill-opacity="0.5"/>
<circle opacity="0.3" cx="1" cy="1" r="1" transform="matrix(-1 0 0 1 579.723 671.795)" fill="#3D427E"/>
<circle cx="1" cy="1" r="1" transform="matrix(-1 0 0 1 121.496 671.795)" fill="#3D427E"/>
<circle opacity="0.34" cx="1199.95" cy="468.846" r="1" transform="rotate(180 1199.95 468.846)" fill="#22265E"/>
<circle opacity="0.34" cx="1311.59" cy="457.835" r="1" transform="rotate(180 1311.59 457.835)" fill="#22265E"/>
<circle cx="795.129" cy="468.846" r="1" transform="rotate(180 795.129 468.846)" fill="#22265E"/>
<circle cx="336.902" cy="468.846" r="1" transform="rotate(180 336.902 468.846)" fill="#22265E"/>
<circle opacity="0.34" cx="1138.09" cy="468.846" r="1" transform="rotate(180 1138.09 468.846)" fill="#3D427E"/>
<circle opacity="0.34" cx="1249.74" cy="457.835" r="1" transform="rotate(180 1249.74 457.835)" fill="#3D427E"/>
<circle cx="733.301" cy="468.846" r="1" transform="rotate(180 733.301 468.846)" fill="#3D427E"/>
<circle cx="275.059" cy="468.846" r="1" transform="rotate(180 275.059 468.846)" fill="#3D427E"/>
<circle cx="1138.09" cy="540.194" r="1" transform="rotate(180 1138.09 540.194)" fill="#3D427E"/>
<circle cx="1249.74" cy="529.184" r="1" transform="rotate(180 1249.74 529.184)" fill="#3D427E"/>
<circle opacity="0.2" cx="1" cy="1" r="1" transform="matrix(-1 0 0 1 1284.5 267.325)" fill="#3D427E"/>
<circle cx="1" cy="1" r="1" transform="matrix(-1 0 0 1 1318.21 117.12)" fill="#3D427E"/>
<circle cx="1" cy="1" r="1" transform="matrix(-1 0 0 1 1259.18 323.652)" fill="#3D427E"/>
<circle cx="1" cy="1" r="1" transform="matrix(-1 0 0 1 1292.92 173.447)" fill="#3D427E"/>
<circle cx="1201.9" cy="60.6226" r="1" transform="rotate(180 1201.9 60.6226)" fill="#3D427E"/>
<circle cx="1297.5" cy="4.29639" r="1" transform="rotate(180 1297.5 4.29639)" fill="#3D427E"/>
<circle cx="1285.02" cy="593.732" r="1" fill="#3D427E"/>
<circle cx="1246.47" cy="560.191" r="1" fill="#3D427E"/>
<circle cx="1" cy="1" r="1" transform="matrix(-1 0 0 1 1255.15 804.357)" fill="#3D427E"/>
<circle cx="1" cy="1" r="1" transform="matrix(-1 0 0 1 1293.7 770.815)" fill="#3D427E"/>
<circle cx="1" cy="1" r="1" transform="matrix(-1 0 0 1 1302.14 721.999)" fill="#3D427E"/>
<circle cx="1250.49" cy="699.296" r="1" transform="rotate(180 1250.49 699.296)" fill="#3D427E"/>
<circle cx="1285.77" cy="763.845" r="1" fill="#3D427E"/>
<circle cx="1247.22" cy="730.304" r="1" fill="#3D427E"/>
<circle cx="1238.04" cy="511.374" r="1" fill="#3D427E"/>
<circle opacity="0.34" cx="1" cy="1" r="1" transform="matrix(1 0 0 -1 1225.83 417.324)" fill="#22265E"/>
<circle opacity="0.34" cx="1" cy="1" r="1" transform="matrix(1 0 0 -1 1287.68 417.324)" fill="#3D427E"/>
<circle cx="1" cy="1" r="1" transform="matrix(1 0 0 -1 1287.68 488.672)" fill="#3D427E"/>
<circle cx="733.301" cy="540.194" r="1" transform="rotate(180 733.301 540.194)" fill="#3D427E"/>
<circle opacity="0.3" cx="275.059" cy="540.194" r="1" transform="rotate(180 275.059 540.194)" fill="#3D427E"/>
<circle cx="1065" cy="562.725" r="1" transform="rotate(180 1065 562.725)" fill="#3D427E"/>
<circle cx="660.207" cy="562.725" r="1" transform="rotate(180 660.207 562.725)" fill="#3D427E"/>
<circle cx="201.965" cy="562.725" r="1" transform="rotate(180 201.965 562.725)" fill="#3D427E"/>
<circle opacity="0.34" cx="1039.7" cy="461.337" r="1" transform="rotate(180 1039.7 461.337)" fill="#3D427E"/>
<circle cx="634.902" cy="461.337" r="1" transform="rotate(180 634.902 461.337)" fill="#3D427E"/>
<circle cx="176.652" cy="461.337" r="1" transform="rotate(180 176.652 461.337)" fill="#3D427E"/>
<circle cx="1073.43" cy="611.542" r="1" transform="rotate(180 1073.43 611.542)" fill="#3D427E"/>
<circle cx="668.645" cy="611.542" r="1" transform="rotate(180 668.645 611.542)" fill="#3D427E"/>
<circle cx="210.402" cy="611.542" r="1" transform="rotate(180 210.402 611.542)" fill="#3D427E"/>
<circle cx="893.52" cy="558.971" r="1" transform="rotate(180 893.52 558.971)" fill="#3D427E" fill-opacity="0.5"/>
<circle cx="488.723" cy="558.971" r="1" transform="rotate(180 488.723 558.971)" fill="#3D427E"/>
<circle cx="30.4805" cy="558.971" r="1" transform="rotate(180 30.4805 558.971)" fill="#3D427E"/>
<circle cx="989.113" cy="502.644" r="1" transform="rotate(180 989.113 502.644)" fill="#3D427E"/>
<circle opacity="0.3" cx="584.293" cy="502.644" r="1" transform="rotate(180 584.293 502.644)" fill="#3D427E"/>
<circle cx="126.074" cy="502.644" r="1" transform="rotate(180 126.074 502.644)" fill="#3D427E"/>
<circle cx="1" cy="1" r="1" transform="matrix(-1 0 0 1 78.5352 515.206)" fill="#22265E"/>
<circle opacity="0.34" cx="1" cy="1" r="1" transform="matrix(-1 0 0 1 112.285 365.001)" fill="#22265E"/>
<circle cx="1" cy="1" r="1" transform="matrix(-1 0 0 1 16.707 515.206)" fill="#3D427E"/>
<circle opacity="0.34" cx="1" cy="1" r="1" transform="matrix(-1 0 0 1 50.4414 365.001)" fill="#3D427E"/>
<circle cx="1" cy="1" r="1" transform="matrix(-1 0 0 1 16.707 443.858)" fill="#3D427E"/>
<circle cx="1" cy="1" r="1" transform="matrix(-1 0 0 1 50.4414 293.654)" fill="#3D427E"/>
<circle cx="1" cy="1" r="1" transform="matrix(-1 0 0 1 88.9883 260.112)" fill="#3D427E"/>
<circle cx="1" cy="1" r="1" transform="matrix(-1 0 0 1 97.4258 211.296)" fill="#3D427E"/>
<circle cx="17.2539" cy="732.714" r="1" fill="#3D427E"/>
<circle cx="1" cy="1" r="1" transform="matrix(1 0 0 -1 131.551 676.217)" fill="#3D427E"/>
<circle cx="1" cy="1" r="1" transform="matrix(1 0 0 -1 35.957 619.89)" fill="#3D427E"/>
<circle cx="868.238" cy="502.644" r="1" transform="rotate(180 868.238 502.644)" fill="#3D427E" fill-opacity="0.5"/>
<circle opacity="0.3" cx="463.418" cy="502.644" r="1" transform="rotate(180 463.418 502.644)" fill="#3D427E"/>
<circle cx="5.19908" cy="502.644" r="1" transform="rotate(180 5.19908 502.644)" fill="#3D427E"/>
</g>
</svg>
