<svg width="70" height="48" viewBox="0 0 70 48" fill="none" xmlns="http://www.w3.org/2000/svg">
<path fill-rule="evenodd" clip-rule="evenodd" d="M29.3276 5.23501C31.5386 2.93176 34.619 1.50151 38.0241 1.50151C42.5504 1.50151 46.5008 4.02601 48.6038 7.77376C50.4855 6.93326 52.5236 6.50003 54.5845 6.50251C62.7492 6.50251 69.3674 13.179 69.3674 21.4163C69.3674 29.6535 62.7492 36.33 54.5845 36.33C53.5862 36.33 52.6127 36.2303 51.6714 36.0405C49.8196 39.3427 46.2885 41.5747 42.2377 41.5747C40.5419 41.5747 38.9376 41.1847 37.5103 40.4865C35.6322 44.904 31.2574 48 26.1595 48C20.8508 48 16.3252 44.64 14.5889 39.9292C13.8153 40.0925 13.0268 40.1747 12.2361 40.1745C5.9142 40.1753 0.789308 34.9973 0.789308 28.6095C0.784565 26.5852 1.31052 24.5949 2.31475 22.8372C3.31898 21.0795 4.76639 19.6157 6.51271 18.5918C5.78823 16.9224 5.41547 15.1218 5.41768 13.302C5.41768 5.95501 11.3811 9.05198e-06 18.7373 9.05198e-06C20.7865 -0.00238179 22.8086 0.468865 24.6457 1.37696C26.4828 2.28506 28.0851 3.60543 29.3276 5.23501Z" fill="white"/>
<path fill-rule="evenodd" clip-rule="evenodd" d="M10.7197 24.8923L10.9972 24.122C11.0414 23.99 11.1412 24.0335 11.1817 24.0583C11.2589 24.104 11.3144 24.1453 11.4142 24.2038C12.2317 24.7205 12.9892 24.7258 13.2255 24.7258C13.8375 24.7258 14.217 24.4018 14.217 23.9645V23.942C14.217 23.4665 13.632 23.2865 12.9562 23.0795L12.8062 23.0315C11.8784 22.7675 10.8862 22.3858 10.8862 21.2113V21.1873C10.8862 20.0728 11.7854 19.295 13.0725 19.295L13.2135 19.2935C13.9695 19.2935 14.7 19.5133 15.2295 19.8343C15.2775 19.8643 15.324 19.9198 15.297 19.9933L15.012 20.7635C14.9618 20.8948 14.8245 20.8078 14.8245 20.8078C14.2721 20.5199 13.6608 20.3631 13.038 20.3495C12.492 20.3495 12.141 20.639 12.141 21.032V21.0568C12.141 21.515 12.7425 21.7108 13.44 21.938L13.56 21.9755C14.4848 22.268 15.4718 22.673 15.4718 23.7868V23.81C15.4718 25.0138 14.5973 25.7615 13.191 25.7615C12.5002 25.7615 11.8394 25.655 11.1404 25.2838C11.0084 25.2073 10.8779 25.1413 10.7489 25.0475C10.7354 25.028 10.6762 25.0048 10.7189 24.8923H10.7197ZM31.313 24.8923L31.5912 24.122C31.6317 23.996 31.7495 24.0425 31.775 24.0583C31.8515 24.1055 31.9085 24.1453 32.0075 24.2038C32.8265 24.7205 33.5825 24.7258 33.821 24.7258C34.4308 24.7258 34.8111 24.4018 34.8111 23.9645V23.942C34.8111 23.4665 34.2268 23.2865 33.551 23.0795L33.401 23.0315C32.4718 22.7675 31.4795 22.3858 31.4795 21.2113V21.1873C31.4795 20.0728 32.3795 19.295 33.6665 19.295L33.8068 19.2935C34.5628 19.2935 35.2941 19.5133 35.8243 19.8343C35.8708 19.8643 35.9181 19.9198 35.8918 19.9933C35.8656 20.0615 35.6316 20.6915 35.6068 20.7635C35.5551 20.8948 35.4193 20.8078 35.4193 20.8078C34.8667 20.5198 34.2551 20.363 33.632 20.3495C33.086 20.3495 32.735 20.639 32.735 21.032V21.0568C32.735 21.515 33.3358 21.7108 34.034 21.938L34.154 21.9755C35.0788 22.268 36.0651 22.673 36.0651 23.7868V23.81C36.0651 25.0138 35.1913 25.7615 33.785 25.7615C33.0935 25.7615 32.4328 25.655 31.7345 25.2838C31.6025 25.2073 31.472 25.1413 31.3422 25.0475C31.3287 25.028 31.2695 25.0048 31.313 24.8923ZM46.5459 21.2705C46.6614 21.6575 46.7184 22.0828 46.7184 22.532C46.7184 22.982 46.6614 23.4058 46.5459 23.7928C46.4403 24.1659 46.259 24.5134 46.0134 24.8135C45.7673 25.105 45.4586 25.3373 45.1103 25.493C44.7503 25.658 44.3273 25.7405 43.8518 25.7405C43.3763 25.7405 42.9518 25.658 42.5933 25.493C42.245 25.3373 41.9364 25.105 41.6902 24.8135C41.4448 24.5134 41.2634 24.1663 41.157 23.7935C41.0391 23.3835 40.981 22.9586 40.9845 22.532C40.9845 22.082 41.0422 21.6575 41.157 21.2705C41.2725 20.8805 41.4517 20.537 41.6895 20.2505C41.9362 19.9578 42.2449 19.7237 42.5933 19.565C42.9525 19.397 43.3748 19.3123 43.8518 19.3123C44.3288 19.3123 44.7511 19.397 45.1103 19.565C45.4689 19.7323 45.7734 19.9625 46.0134 20.2505C46.2519 20.537 46.4319 20.8805 46.5459 21.2705ZM45.3728 22.532C45.3728 21.8518 45.2468 21.317 44.9963 20.942C44.7488 20.57 44.3738 20.39 43.8518 20.39C43.3298 20.39 42.9578 20.57 42.7133 20.942C42.468 21.317 42.3428 21.8518 42.3428 22.532C42.3428 23.2115 42.468 23.75 42.7148 24.128C42.9578 24.5045 43.3298 24.6868 43.8518 24.6868C44.3738 24.6868 44.7488 24.5038 44.9963 24.128C45.2453 23.75 45.3728 23.2115 45.3728 22.532ZM56.1896 24.5045L56.4776 25.301C56.5151 25.3985 56.4304 25.4413 56.4304 25.4413C55.9856 25.6138 55.3684 25.7368 54.7676 25.7368C53.7491 25.7368 52.969 25.4435 52.4485 24.8645C51.931 24.287 51.667 23.5018 51.667 22.5275C51.667 22.0768 51.7323 21.65 51.8598 21.2638C51.9873 20.8738 52.1785 20.5303 52.4305 20.2438C52.6922 19.9492 53.015 19.7153 53.3763 19.5583C53.7513 19.391 54.1923 19.307 54.6843 19.307C55.0166 19.307 55.3121 19.3273 55.5656 19.3648C55.8364 19.4068 56.1971 19.5043 56.3494 19.5635C56.3771 19.574 56.4544 19.6115 56.4229 19.7023C56.3119 20.015 56.2361 20.219 56.1334 20.504C56.0884 20.6255 55.9969 20.585 55.9969 20.585C55.6106 20.4635 55.2401 20.408 54.7564 20.408C54.1751 20.408 53.7386 20.6015 53.4536 20.9803C53.1656 21.362 53.0043 21.8623 53.0021 22.5275C52.9998 23.2573 53.1828 23.798 53.5068 24.1325C53.8301 24.4663 54.2816 24.635 54.8501 24.635C55.0804 24.635 55.2979 24.62 55.4936 24.5893C55.6871 24.5585 55.8686 24.4985 56.0396 24.4318C56.0396 24.4318 56.1499 24.3905 56.1896 24.5045ZM62.1973 21.0493C62.4531 21.9448 62.3196 22.718 62.3151 22.7608C62.3053 22.8628 62.2003 22.8643 62.2003 22.8643L58.2259 22.8613C58.2507 23.465 58.3954 23.8925 58.688 24.1828C58.9752 24.467 59.4312 24.6493 60.0485 24.65C60.992 24.6523 61.3948 24.4625 61.6805 24.3568C61.6805 24.3568 61.7893 24.3178 61.8305 24.4258L62.0893 25.154C62.1418 25.2763 62.0998 25.319 62.0555 25.3438C61.8065 25.481 61.2028 25.7375 60.0537 25.7405C59.4965 25.7428 59.0112 25.6633 58.6115 25.508C58.2316 25.3673 57.8894 25.1407 57.6117 24.8458C57.3462 24.5564 57.1491 24.2112 57.0349 23.8355C56.9119 23.4239 56.8515 22.9961 56.8557 22.5665C56.8557 22.1165 56.9134 21.689 57.0297 21.2983C57.1459 20.9045 57.3267 20.5573 57.5674 20.2655C57.817 19.9678 58.1298 19.7295 58.4832 19.568C58.8477 19.3963 59.2992 19.3123 59.7957 19.3123C60.221 19.3123 60.6095 19.4038 60.9328 19.5433C61.1818 19.6498 61.4323 19.8425 61.6888 20.1185C61.8508 20.2925 62.0975 20.6735 62.1973 21.0493ZM58.2447 21.8795H61.0798C61.0505 21.515 60.9793 21.188 60.8158 20.942C60.5668 20.57 60.2232 20.3653 59.702 20.3653C59.18 20.3653 58.8095 20.57 58.5642 20.942C58.4037 21.188 58.3009 21.5015 58.2447 21.8795ZM30.3627 21.0493C30.6177 21.9448 30.4864 22.718 30.4819 22.7608C30.4714 22.8628 30.3664 22.8643 30.3664 22.8643L26.3913 22.8613C26.4168 23.465 26.5608 23.8925 26.8541 24.1828C27.1414 24.467 27.5966 24.6493 28.2139 24.65C29.1574 24.6523 29.5617 24.4625 29.8467 24.3568C29.8467 24.3568 29.9554 24.3178 29.9959 24.4258L30.2554 25.154C30.3079 25.2763 30.2659 25.319 30.2224 25.3438C29.9719 25.481 29.3674 25.7375 28.2199 25.7405C27.6619 25.7428 27.1766 25.6633 26.7776 25.508C26.3976 25.3671 26.0552 25.1405 25.7771 24.8458C25.5123 24.5562 25.3158 24.211 25.2018 23.8355C25.0779 23.4241 25.017 22.9962 25.0211 22.5665C25.0211 22.1165 25.0796 21.689 25.1951 21.2983C25.3031 20.9213 25.4863 20.57 25.7336 20.2655C25.983 19.968 26.2956 19.7297 26.6486 19.568C27.0146 19.3963 27.4661 19.3123 27.9611 19.3123C28.3524 19.3114 28.7397 19.3899 29.0997 19.5433C29.3487 19.6498 29.5992 19.8425 29.8549 20.1185C30.0169 20.2925 30.2637 20.6735 30.3627 21.0493ZM26.4093 21.8795H29.2459C29.2159 21.515 29.1447 21.188 28.9819 20.942C28.7344 20.57 28.3894 20.3653 27.8681 20.3653C27.3461 20.3653 26.9749 20.57 26.7311 20.942C26.5691 21.188 26.4671 21.5015 26.4093 21.8795ZM19.3996 21.6898C19.3996 21.6898 19.7132 21.7175 20.0552 21.767V21.599C20.0552 21.0688 19.9449 20.819 19.7282 20.6518C19.5062 20.4823 19.1746 20.3945 18.7456 20.3945C18.7456 20.3945 17.7781 20.3825 17.0131 20.798C16.9778 20.819 16.9486 20.831 16.9486 20.831C16.9486 20.831 16.8526 20.8648 16.8181 20.7665L16.5368 20.0105C16.4933 19.9018 16.5721 19.8523 16.5721 19.8523C16.9298 19.5733 17.7969 19.4045 17.7969 19.4045C18.1488 19.3427 18.5053 19.3098 18.8626 19.3063C19.6562 19.3063 20.2704 19.4908 20.6882 19.856C21.1067 20.2228 21.3197 20.8138 21.3197 21.6103L21.322 25.2463C21.322 25.2463 21.3302 25.3513 21.2304 25.3753C21.2304 25.3753 21.0842 25.4158 20.9529 25.4465C20.8202 25.4773 20.3417 25.5748 19.9509 25.6408C19.5519 25.7076 19.148 25.7413 18.7434 25.7413C18.3571 25.7413 18.0031 25.7053 17.6911 25.634C17.4003 25.5731 17.125 25.4537 16.8818 25.283C16.6602 25.1221 16.4823 24.9084 16.3643 24.6613C16.2421 24.4115 16.1806 24.1063 16.1806 23.7538C16.1806 23.408 16.2533 23.0998 16.3936 22.8373C16.5346 22.5763 16.7281 22.355 16.9711 22.1818C17.2221 22.005 17.5028 21.8747 17.7999 21.797C18.1096 21.7145 18.4389 21.6718 18.7794 21.6718C19.0291 21.6718 19.2376 21.677 19.3996 21.6898ZM17.8179 24.4828C17.8156 24.482 18.1741 24.764 18.9834 24.7145C19.5519 24.68 20.0559 24.572 20.0559 24.572V22.7645C20.0559 22.7645 19.5474 22.6813 18.9766 22.673C18.1674 22.6633 17.8224 22.961 17.8246 22.9603C17.5861 23.1298 17.4698 23.381 17.4698 23.729C17.4698 23.9518 17.5096 24.1258 17.5899 24.2473C17.6401 24.3275 17.6619 24.3575 17.8179 24.4828ZM51.46 19.6415C51.4225 19.7503 51.2298 20.2948 51.16 20.4755C51.1345 20.5445 51.0925 20.5918 51.0153 20.5835C51.0153 20.5835 50.7872 20.531 50.5787 20.531C50.4355 20.531 50.2307 20.549 50.0462 20.606C49.8612 20.6629 49.6928 20.7641 49.5557 20.9008C49.4102 21.041 49.2925 21.2383 49.2069 21.4858C49.1199 21.7348 49.0749 22.1308 49.0749 22.5283V25.4893C49.075 25.5051 49.072 25.5208 49.066 25.5354C49.06 25.5501 49.0512 25.5634 49.0401 25.5746C49.0289 25.5858 49.0157 25.5947 49.001 25.6008C48.9864 25.6069 48.9708 25.61 48.9549 25.61H47.9117C47.8957 25.6102 47.8799 25.6073 47.8651 25.6014C47.8502 25.5954 47.8367 25.5866 47.8253 25.5755C47.8139 25.5644 47.8048 25.5511 47.7985 25.5364C47.7922 25.5217 47.7889 25.506 47.7887 25.49V19.5613C47.7887 19.4945 47.8374 19.4413 47.9042 19.4413H48.9219C48.9894 19.4413 49.0374 19.4945 49.0374 19.5613V20.0458C49.1897 19.8418 49.4627 19.6618 49.7095 19.5508C49.957 19.4383 50.2337 19.3558 50.734 19.3858C50.9943 19.4015 51.3325 19.4728 51.4008 19.499C51.4141 19.5044 51.4262 19.5123 51.4365 19.5224C51.4467 19.5325 51.4548 19.5446 51.4603 19.5578C51.4659 19.5711 51.4687 19.5853 51.4686 19.5997C51.4686 19.6141 51.4656 19.6283 51.46 19.6415ZM41.6572 16.8943C41.685 16.9055 41.7608 16.9423 41.7307 17.0323L41.4255 17.867C41.4 17.93 41.3835 17.9675 41.2537 17.9285C41.0821 17.8746 40.9034 17.8467 40.7235 17.846C40.566 17.846 40.4235 17.8663 40.2975 17.9083C40.1714 17.9486 40.0571 18.0192 39.9645 18.1138C39.8412 18.2329 39.7459 18.3779 39.6854 18.5383C39.5392 18.9583 39.4829 19.406 39.4754 19.4345H40.746C40.8532 19.4345 40.887 19.484 40.8765 19.5628L40.728 20.3893C40.704 20.5093 40.5952 20.5048 40.5952 20.5048H39.2857L38.3909 25.5718C38.314 26.0262 38.197 26.4729 38.0414 26.9068C37.9011 27.2735 37.7564 27.5413 37.5239 27.797C37.3254 28.0259 37.0731 28.2017 36.7896 28.3085C36.5144 28.4098 36.1799 28.4615 35.8146 28.4615C35.6406 28.4615 35.4531 28.4578 35.2318 28.4053C35.1085 28.3771 34.9871 28.3415 34.8681 28.2988C34.8193 28.2815 34.7796 28.2193 34.8081 28.1398C34.8351 28.061 35.0706 27.4168 35.1021 27.332C35.1426 27.23 35.2461 27.269 35.2461 27.269C35.3166 27.299 35.3661 27.3185 35.4598 27.3373C35.5551 27.356 35.6826 27.3725 35.7793 27.3725C35.9526 27.3725 36.1101 27.3515 36.2474 27.305C36.4124 27.2518 36.5099 27.155 36.6104 27.026C36.7154 26.8903 36.8009 26.7065 36.8886 26.4598C36.9764 26.21 37.0566 25.88 37.1256 25.4803L38.0167 20.5055H37.1391C37.0341 20.5055 36.9981 20.456 37.0101 20.3765L37.1571 19.55C37.1804 19.43 37.2921 19.4345 37.2921 19.4345H38.1929L38.2417 19.166C38.3767 18.368 38.6444 17.7613 39.0404 17.363C39.4387 16.9618 40.005 16.7593 40.7235 16.7593C40.929 16.7593 41.1105 16.7728 41.2642 16.8005C41.415 16.829 41.5297 16.8553 41.6572 16.8943ZM23.8998 25.4893C23.8998 25.5568 23.8533 25.61 23.7858 25.61H22.732C22.6645 25.61 22.6187 25.556 22.6187 25.49V17.0053C22.6187 16.94 22.6652 16.886 22.7312 16.886H23.7858C23.8533 16.886 23.8998 16.94 23.8998 17.006V25.4893Z" fill="#010315"/>
</svg>
