<svg width="801" height="128" viewBox="0 0 801 128" fill="none" xmlns="http://www.w3.org/2000/svg">
<circle cx="53.2031" cy="116.4" r="1" fill="#22265E"/>
<circle opacity="0.1" cx="306.18" cy="116.4" r="1" fill="#22265E"/>
<circle cx="592.547" cy="116.4" r="1" fill="#22265E"/>
<circle opacity="0.34" cx="32.1172" cy="73.4902" r="1" fill="#22265E"/>
<circle cx="285.102" cy="73.4902" r="1" fill="#22265E"/>
<circle cx="571.461" cy="73.4902" r="1" fill="#22265E"/>
<circle cx="91.8516" cy="116.4" r="1" fill="#3D427E"/>
<circle opacity="0.1" cx="344.828" cy="116.399" r="1" fill="#3D427E"/>
<circle cx="631.188" cy="116.4" r="1" fill="#3D427E"/>
<circle opacity="0.34" cx="70.7656" cy="73.4902" r="1" fill="#3D427E"/>
<circle cx="323.742" cy="73.4902" r="1" fill="#3D427E"/>
<circle cx="610.109" cy="73.4902" r="1" fill="#3D427E"/>
<circle cx="91.8516" cy="96.0176" r="1" fill="#3D427E"/>
<circle cx="344.828" cy="96.0176" r="1" fill="#3D427E"/>
<circle cx="631.188" cy="96.0176" r="1" fill="#3D427E"/>
<circle cx="70.7656" cy="53.1094" r="1" fill="#3D427E"/>
<circle cx="1" cy="49.9629" r="1" fill="#3D427E"/>
<circle cx="323.742" cy="53.1094" r="1" fill="#3D427E"/>
<circle opacity="0.3" cx="610.109" cy="53.1094" r="1" fill="#3D427E"/>
<circle cx="137.531" cy="89.582" r="1" fill="#3D427E"/>
<circle opacity="0.4" cx="390.508" cy="89.582" r="1" fill="#3D427E"/>
<circle opacity="0.2" cx="676.859" cy="89.582" r="1" fill="#3D427E"/>
<circle cx="116.445" cy="46.6719" r="1" fill="#3D427E"/>
<circle cx="46.6797" cy="43.5273" r="1" fill="#3D427E"/>
<circle cx="369.422" cy="46.6719" r="1" fill="#3D427E"/>
<circle cx="655.789" cy="46.6719" r="1" fill="#3D427E"/>
<circle opacity="0.34" cx="132.258" cy="75.6367" r="1" fill="#3D427E"/>
<circle cx="385.234" cy="75.6367" r="1" fill="#3D427E"/>
<circle cx="671.602" cy="75.6367" r="1" fill="#3D427E"/>
<circle cx="111.172" cy="32.7266" r="1" fill="#3D427E"/>
<circle cx="41.4062" cy="29.582" r="1" fill="#3D427E"/>
<circle cx="364.148" cy="32.7266" r="1" fill="#3D427E"/>
<circle cx="650.516" cy="32.7266" r="1" fill="#3D427E"/>
<circle cx="244.688" cy="90.6543" r="1" fill="#3D427E" fill-opacity="0.5"/>
<circle cx="497.672" cy="90.6543" r="1" fill="#3D427E"/>
<circle opacity="0.2" cx="784.031" cy="90.6543" r="1" fill="#3D427E"/>
<circle cx="223.617" cy="47.7451" r="1" fill="#3D427E" fill-opacity="0.5"/>
<circle cx="476.586" cy="47.7451" r="1" fill="#3D427E"/>
<circle cx="762.961" cy="47.7451" r="1" fill="#3D427E"/>
<circle opacity="0.1" cx="190.234" cy="126.055" r="1" fill="#3D427E"/>
<circle cx="443.211" cy="126.055" r="1" fill="#3D427E"/>
<circle cx="729.578" cy="126.055" r="1" fill="#3D427E"/>
<circle cx="169.148" cy="83.1445" r="1" fill="#3D427E"/>
<circle cx="422.133" cy="83.1445" r="1" fill="#3D427E"/>
<circle cx="708.492" cy="83.1455" r="1" fill="#3D427E"/>
<circle cx="184.961" cy="106.745" r="1" fill="#3D427E"/>
<circle opacity="0.4" cx="437.938" cy="106.745" r="1" fill="#3D427E"/>
<circle cx="724.305" cy="106.745" r="1" fill="#3D427E"/>
<circle cx="163.875" cy="63.8359" r="1" fill="#3D427E"/>
<circle opacity="0.3" cx="416.867" cy="63.8359" r="1" fill="#3D427E"/>
<circle cx="703.219" cy="63.8359" r="1" fill="#3D427E"/>
<circle cx="260.5" cy="106.745" r="1" fill="#3D427E"/>
<circle cx="546.867" cy="106.745" r="1" fill="#3D427E"/>
<circle cx="513.484" cy="106.745" r="1" fill="#3D427E"/>
<circle cx="799.844" cy="106.745" r="1" fill="#3D427E"/>
<circle cx="239.414" cy="63.8359" r="1" fill="#3D427E" fill-opacity="0.5"/>
<circle opacity="0.3" cx="492.406" cy="63.8359" r="1" fill="#3D427E"/>
<circle cx="778.758" cy="63.8359" r="1" fill="#3D427E"/>
<circle opacity="0.34" cx="1" cy="1" r="1" transform="matrix(1 0 0 -1 103.172 5.14551)" fill="#22265E"/>
<circle opacity="0.34" cx="1" cy="1" r="1" transform="matrix(1 0 0 -1 33.4062 2)" fill="#22265E"/>
<circle cx="1" cy="1" r="1" transform="matrix(1 0 0 -1 356.164 5.14551)" fill="#22265E"/>
<circle cx="1" cy="1" r="1" transform="matrix(1 0 0 -1 642.523 5.14551)" fill="#22265E"/>
<circle opacity="0.34" cx="1" cy="1" r="1" transform="matrix(1 0 0 -1 141.828 5.14551)" fill="#3D427E"/>
<circle opacity="0.34" cx="1" cy="1" r="1" transform="matrix(1 0 0 -1 72.0625 2)" fill="#3D427E"/>
<circle cx="1" cy="1" r="1" transform="matrix(1 0 0 -1 394.805 5.14551)" fill="#3D427E"/>
<circle cx="1" cy="1" r="1" transform="matrix(1 0 0 -1 681.172 5.14551)" fill="#3D427E"/>
<circle cx="1" cy="1" r="1" transform="matrix(1 0 0 -1 141.828 25.5273)" fill="#3D427E"/>
<circle cx="1" cy="1" r="1" transform="matrix(1 0 0 -1 72.0625 22.3818)" fill="#3D427E"/>
<circle cx="1" cy="1" r="1" transform="matrix(1 0 0 -1 394.805 25.5273)" fill="#3D427E"/>
<circle opacity="0.3" cx="1" cy="1" r="1" transform="matrix(1 0 0 -1 681.172 25.5273)" fill="#3D427E"/>
<circle cx="1" cy="1" r="1" transform="matrix(1 0 0 -1 187.508 31.9639)" fill="#3D427E"/>
<circle cx="1" cy="1" r="1" transform="matrix(1 0 0 -1 440.477 31.9639)" fill="#3D427E"/>
<circle cx="1" cy="1" r="1" transform="matrix(1 0 0 -1 726.852 31.9639)" fill="#3D427E"/>
<circle opacity="0.34" cx="1" cy="1" r="1" transform="matrix(1 0 0 -1 203.32 3)" fill="#3D427E"/>
<circle cx="1" cy="1" r="1" transform="matrix(1 0 0 -1 456.297 3)" fill="#3D427E"/>
<circle cx="1" cy="1" r="1" transform="matrix(1 0 0 -1 742.664 3)" fill="#3D427E"/>
<circle cx="1" cy="1" r="1" transform="matrix(1 0 0 -1 182.234 45.9092)" fill="#3D427E"/>
<circle cx="1" cy="1" r="1" transform="matrix(1 0 0 -1 435.211 45.9092)" fill="#3D427E"/>
<circle cx="1" cy="1" r="1" transform="matrix(1 0 0 -1 721.578 45.9092)" fill="#3D427E"/>
<circle cx="1" cy="1" r="1" transform="matrix(1 0 0 -1 294.672 30.8906)" fill="#3D427E" fill-opacity="0.5"/>
<circle cx="1" cy="1" r="1" transform="matrix(1 0 0 -1 547.648 30.8906)" fill="#3D427E"/>
<circle cx="1" cy="1" r="1" transform="matrix(1 0 0 -1 234.938 14.8008)" fill="#3D427E"/>
<circle opacity="0.3" cx="1" cy="1" r="1" transform="matrix(1 0 0 -1 487.922 14.8008)" fill="#3D427E"/>
<circle cx="1" cy="1" r="1" transform="matrix(1 0 0 -1 774.281 14.8008)" fill="#3D427E"/>
<circle cx="1" cy="1" r="1" transform="matrix(1 0 0 -1 310.477 14.8008)" fill="#3D427E" fill-opacity="0.5"/>
<circle opacity="0.3" cx="1" cy="1" r="1" transform="matrix(1 0 0 -1 563.461 14.8008)" fill="#3D427E"/>
</svg>
