<svg width="802" height="128" viewBox="0 0 802 128" fill="none" xmlns="http://www.w3.org/2000/svg">
<circle cx="1" cy="1" r="1" transform="matrix(1 0 0 -1 52.7031 12.5996)" fill="#22265E"/>
<circle opacity="0.1" cx="1" cy="1" r="1" transform="matrix(1 0 0 -1 305.68 12.5996)" fill="#22265E"/>
<circle cx="1" cy="1" r="1" transform="matrix(1 0 0 -1 592.047 12.5996)" fill="#22265E"/>
<circle opacity="0.34" cx="1" cy="1" r="1" transform="matrix(1 0 0 -1 31.6172 55.5098)" fill="#22265E"/>
<circle cx="1" cy="1" r="1" transform="matrix(1 0 0 -1 284.602 55.5098)" fill="#22265E"/>
<circle cx="1" cy="1" r="1" transform="matrix(1 0 0 -1 570.961 55.5098)" fill="#22265E"/>
<circle cx="1" cy="1" r="1" transform="matrix(1 0 0 -1 91.3516 12.5996)" fill="#3D427E"/>
<circle opacity="0.1" cx="1" cy="1" r="1" transform="matrix(1 0 0 -1 344.328 12.6016)" fill="#3D427E"/>
<circle cx="1" cy="1" r="1" transform="matrix(1 0 0 -1 630.688 12.5996)" fill="#3D427E"/>
<circle opacity="0.34" cx="1" cy="1" r="1" transform="matrix(1 0 0 -1 70.2656 55.5098)" fill="#3D427E"/>
<circle cx="1" cy="1" r="1" transform="matrix(1 0 0 -1 323.242 55.5098)" fill="#3D427E"/>
<circle cx="1" cy="1" r="1" transform="matrix(1 0 0 -1 609.609 55.5098)" fill="#3D427E"/>
<circle cx="1" cy="1" r="1" transform="matrix(1 0 0 -1 91.3516 32.9824)" fill="#3D427E"/>
<circle cx="1" cy="1" r="1" transform="matrix(1 0 0 -1 344.328 32.9824)" fill="#3D427E"/>
<circle cx="1" cy="1" r="1" transform="matrix(1 0 0 -1 630.688 32.9824)" fill="#3D427E"/>
<circle cx="1" cy="1" r="1" transform="matrix(1 0 0 -1 70.2656 75.8906)" fill="#3D427E"/>
<circle cx="1" cy="1" r="1" transform="matrix(1 0 0 -1 0.5 79.0371)" fill="#3D427E"/>
<circle cx="1" cy="1" r="1" transform="matrix(1 0 0 -1 323.242 75.8906)" fill="#3D427E"/>
<circle opacity="0.3" cx="1" cy="1" r="1" transform="matrix(1 0 0 -1 609.609 75.8906)" fill="#3D427E"/>
<circle cx="1" cy="1" r="1" transform="matrix(1 0 0 -1 137.031 39.418)" fill="#3D427E"/>
<circle opacity="0.4" cx="1" cy="1" r="1" transform="matrix(1 0 0 -1 390.008 39.418)" fill="#3D427E"/>
<circle opacity="0.2" cx="1" cy="1" r="1" transform="matrix(1 0 0 -1 676.359 39.418)" fill="#3D427E"/>
<circle cx="1" cy="1" r="1" transform="matrix(1 0 0 -1 115.945 82.3281)" fill="#3D427E"/>
<circle cx="1" cy="1" r="1" transform="matrix(1 0 0 -1 46.1797 85.4727)" fill="#3D427E"/>
<circle cx="1" cy="1" r="1" transform="matrix(1 0 0 -1 368.922 82.3281)" fill="#3D427E"/>
<circle cx="1" cy="1" r="1" transform="matrix(1 0 0 -1 655.289 82.3281)" fill="#3D427E"/>
<circle opacity="0.34" cx="1" cy="1" r="1" transform="matrix(1 0 0 -1 131.758 53.3633)" fill="#3D427E"/>
<circle cx="1" cy="1" r="1" transform="matrix(1 0 0 -1 384.734 53.3633)" fill="#3D427E"/>
<circle cx="1" cy="1" r="1" transform="matrix(1 0 0 -1 671.102 53.3633)" fill="#3D427E"/>
<circle cx="1" cy="1" r="1" transform="matrix(1 0 0 -1 110.672 96.2734)" fill="#3D427E"/>
<circle cx="1" cy="1" r="1" transform="matrix(1 0 0 -1 40.9062 99.418)" fill="#3D427E"/>
<circle cx="1" cy="1" r="1" transform="matrix(1 0 0 -1 363.648 96.2734)" fill="#3D427E"/>
<circle cx="1" cy="1" r="1" transform="matrix(1 0 0 -1 650.016 96.2734)" fill="#3D427E"/>
<circle cx="1" cy="1" r="1" transform="matrix(1 0 0 -1 244.188 38.3457)" fill="#3D427E" fill-opacity="0.5"/>
<circle cx="1" cy="1" r="1" transform="matrix(1 0 0 -1 497.172 38.3457)" fill="#3D427E"/>
<circle opacity="0.2" cx="1" cy="1" r="1" transform="matrix(1 0 0 -1 783.531 38.3457)" fill="#3D427E"/>
<circle cx="1" cy="1" r="1" transform="matrix(1 0 0 -1 223.117 81.2539)" fill="#3D427E" fill-opacity="0.5"/>
<circle cx="1" cy="1" r="1" transform="matrix(1 0 0 -1 476.086 81.2539)" fill="#3D427E"/>
<circle cx="1" cy="1" r="1" transform="matrix(1 0 0 -1 762.461 81.2539)" fill="#3D427E"/>
<circle opacity="0.1" cx="1" cy="1" r="1" transform="matrix(1 0 0 -1 189.734 2.94531)" fill="#3D427E"/>
<circle cx="1" cy="1" r="1" transform="matrix(1 0 0 -1 442.711 2.94531)" fill="#3D427E"/>
<circle cx="1" cy="1" r="1" transform="matrix(1 0 0 -1 729.078 2.94531)" fill="#3D427E"/>
<circle cx="1" cy="1" r="1" transform="matrix(1 0 0 -1 168.648 45.8555)" fill="#3D427E"/>
<circle cx="1" cy="1" r="1" transform="matrix(1 0 0 -1 421.633 45.8555)" fill="#3D427E"/>
<circle cx="1" cy="1" r="1" transform="matrix(1 0 0 -1 707.992 45.8555)" fill="#3D427E"/>
<circle cx="1" cy="1" r="1" transform="matrix(1 0 0 -1 184.461 22.2539)" fill="#3D427E"/>
<circle opacity="0.4" cx="1" cy="1" r="1" transform="matrix(1 0 0 -1 437.438 22.2539)" fill="#3D427E"/>
<circle cx="1" cy="1" r="1" transform="matrix(1 0 0 -1 723.805 22.2539)" fill="#3D427E"/>
<circle cx="1" cy="1" r="1" transform="matrix(1 0 0 -1 163.375 65.1641)" fill="#3D427E"/>
<circle opacity="0.3" cx="1" cy="1" r="1" transform="matrix(1 0 0 -1 416.367 65.1641)" fill="#3D427E"/>
<circle cx="1" cy="1" r="1" transform="matrix(1 0 0 -1 702.719 65.1641)" fill="#3D427E"/>
<circle cx="1" cy="1" r="1" transform="matrix(1 0 0 -1 260 22.2539)" fill="#3D427E"/>
<circle cx="1" cy="1" r="1" transform="matrix(1 0 0 -1 546.367 22.2539)" fill="#3D427E"/>
<circle cx="1" cy="1" r="1" transform="matrix(1 0 0 -1 512.984 22.2539)" fill="#3D427E"/>
<circle cx="1" cy="1" r="1" transform="matrix(1 0 0 -1 799.344 22.2539)" fill="#3D427E"/>
<circle cx="1" cy="1" r="1" transform="matrix(1 0 0 -1 238.914 65.1641)" fill="#3D427E" fill-opacity="0.5"/>
<circle opacity="0.3" cx="1" cy="1" r="1" transform="matrix(1 0 0 -1 491.906 65.1641)" fill="#3D427E"/>
<circle cx="1" cy="1" r="1" transform="matrix(1 0 0 -1 778.258 65.1641)" fill="#3D427E"/>
<circle opacity="0.34" cx="104.672" cy="123.855" r="1" fill="#22265E"/>
<circle opacity="0.34" cx="34.9062" cy="127" r="1" fill="#22265E"/>
<circle cx="357.664" cy="123.855" r="1" fill="#22265E"/>
<circle cx="644.023" cy="123.855" r="1" fill="#22265E"/>
<circle opacity="0.34" cx="143.328" cy="123.855" r="1" fill="#3D427E"/>
<circle opacity="0.34" cx="73.5625" cy="127" r="1" fill="#3D427E"/>
<circle cx="396.305" cy="123.855" r="1" fill="#3D427E"/>
<circle cx="682.672" cy="123.855" r="1" fill="#3D427E"/>
<circle cx="143.328" cy="103.473" r="1" fill="#3D427E"/>
<circle cx="73.5625" cy="106.617" r="1" fill="#3D427E"/>
<circle cx="396.305" cy="103.473" r="1" fill="#3D427E"/>
<circle opacity="0.3" cx="682.672" cy="103.473" r="1" fill="#3D427E"/>
<circle cx="189.008" cy="97.0352" r="1" fill="#3D427E"/>
<circle cx="441.977" cy="97.0352" r="1" fill="#3D427E"/>
<circle cx="728.352" cy="97.0352" r="1" fill="#3D427E"/>
<circle opacity="0.34" cx="204.82" cy="126" r="1" fill="#3D427E"/>
<circle cx="457.797" cy="126" r="1" fill="#3D427E"/>
<circle cx="744.164" cy="126" r="1" fill="#3D427E"/>
<circle cx="183.734" cy="83.0898" r="1" fill="#3D427E"/>
<circle cx="436.711" cy="83.0898" r="1" fill="#3D427E"/>
<circle cx="723.078" cy="83.0898" r="1" fill="#3D427E"/>
<circle cx="296.172" cy="98.1094" r="1" fill="#3D427E" fill-opacity="0.5"/>
<circle cx="549.148" cy="98.1094" r="1" fill="#3D427E"/>
<circle cx="236.438" cy="114.199" r="1" fill="#3D427E"/>
<circle opacity="0.3" cx="489.422" cy="114.199" r="1" fill="#3D427E"/>
<circle cx="775.781" cy="114.199" r="1" fill="#3D427E"/>
<circle cx="311.977" cy="114.199" r="1" fill="#3D427E" fill-opacity="0.5"/>
<circle opacity="0.3" cx="564.961" cy="114.199" r="1" fill="#3D427E"/>
</svg>
