<svg width="1709" height="1122" viewBox="0 0 1709 1122" fill="none" xmlns="http://www.w3.org/2000/svg">
<mask id="mask0_1_387" style="mask-type:alpha" maskUnits="userSpaceOnUse" x="0" y="0" width="1709" height="1122">
<ellipse cx="854.5" cy="561" rx="854" ry="561" fill="#010314"/>
</mask>
<g mask="url(#mask0_1_387)">
<circle cx="206.055" cy="522.96" r="1" fill="#22265E"/>
<circle opacity="0.1" cx="645.242" cy="522.96" r="1" fill="#22265E"/>
<circle cx="1142.41" cy="522.96" r="1" fill="#22265E"/>
<circle opacity="0.34" cx="169.438" cy="372.756" r="1" fill="#22265E"/>
<circle cx="608.656" cy="372.756" r="1" fill="#22265E"/>
<circle cx="1105.81" cy="372.756" r="1" fill="#22265E"/>
<circle cx="273.141" cy="522.96" r="1" fill="#3D427E"/>
<circle opacity="0.1" cx="712.352" cy="522.96" r="1" fill="#3D427E"/>
<circle cx="1209.5" cy="522.96" r="1" fill="#3D427E"/>
<circle opacity="0.34" cx="236.539" cy="372.756" r="1" fill="#3D427E"/>
<circle cx="675.742" cy="372.756" r="1" fill="#3D427E"/>
<circle cx="1172.91" cy="372.756" r="1" fill="#3D427E"/>
<circle cx="273.141" cy="451.612" r="1" fill="#3D427E"/>
<circle cx="712.352" cy="451.612" r="1" fill="#3D427E"/>
<circle cx="1209.5" cy="451.612" r="1" fill="#3D427E"/>
<circle cx="236.539" cy="301.408" r="1" fill="#3D427E"/>
<circle cx="115.414" cy="290.397" r="1" fill="#3D427E"/>
<circle cx="675.742" cy="301.408" r="1" fill="#3D427E"/>
<circle opacity="0.3" cx="1172.91" cy="301.408" r="1" fill="#3D427E"/>
<circle cx="352.453" cy="429.082" r="1" fill="#3D427E"/>
<circle opacity="0.4" cx="791.648" cy="429.082" r="1" fill="#3D427E"/>
<circle opacity="0.2" cx="1288.8" cy="429.082" r="1" fill="#3D427E"/>
<circle cx="315.844" cy="278.877" r="1" fill="#3D427E"/>
<circle cx="194.719" cy="267.866" r="1" fill="#3D427E"/>
<circle cx="755.039" cy="278.877" r="1" fill="#3D427E"/>
<circle cx="1252.22" cy="278.877" r="1" fill="#3D427E"/>
<circle opacity="0.34" cx="343.297" cy="380.266" r="1" fill="#3D427E"/>
<circle cx="782.508" cy="380.266" r="1" fill="#3D427E"/>
<circle cx="1279.68" cy="380.266" r="1" fill="#3D427E"/>
<circle cx="306.695" cy="230.061" r="1" fill="#3D427E"/>
<circle cx="185.562" cy="219.051" r="1" fill="#3D427E"/>
<circle cx="745.898" cy="230.061" r="1" fill="#3D427E"/>
<circle cx="1243.06" cy="230.061" r="1" fill="#3D427E"/>
<circle cx="538.484" cy="432.837" r="1" fill="#3D427E" fill-opacity="0.5"/>
<circle cx="977.711" cy="432.837" r="1" fill="#3D427E"/>
<circle opacity="0.2" cx="1474.86" cy="432.837" r="1" fill="#3D427E"/>
<circle cx="501.906" cy="282.631" r="1" fill="#3D427E" fill-opacity="0.5"/>
<circle cx="941.109" cy="282.631" r="1" fill="#3D427E"/>
<circle cx="1438.28" cy="282.631" r="1" fill="#3D427E"/>
<circle opacity="0.1" cx="443.945" cy="556.756" r="1" fill="#3D427E"/>
<circle cx="883.148" cy="556.756" r="1" fill="#3D427E"/>
<circle cx="1380.33" cy="556.756" r="1" fill="#3D427E"/>
<circle cx="407.344" cy="406.551" r="1" fill="#3D427E"/>
<circle cx="846.562" cy="406.551" r="1" fill="#3D427E"/>
<circle cx="1343.71" cy="406.551" r="1" fill="#3D427E"/>
<circle cx="434.805" cy="489.164" r="1" fill="#3D427E"/>
<circle opacity="0.4" cx="873.992" cy="489.164" r="1" fill="#3D427E"/>
<circle cx="1371.17" cy="489.164" r="1" fill="#3D427E"/>
<circle cx="398.188" cy="338.959" r="1" fill="#3D427E"/>
<circle opacity="0.3" cx="837.406" cy="338.959" r="1" fill="#3D427E"/>
<circle cx="1334.56" cy="338.959" r="1" fill="#3D427E"/>
<circle cx="565.953" cy="489.164" r="1" fill="#3D427E"/>
<circle cx="1063.12" cy="489.164" r="1" fill="#3D427E"/>
<circle cx="1005.17" cy="489.164" r="1" fill="#3D427E"/>
<circle cx="1502.32" cy="489.164" r="1" fill="#3D427E"/>
<circle cx="529.336" cy="338.959" r="1" fill="#3D427E" fill-opacity="0.5"/>
<circle opacity="0.3" cx="968.555" cy="338.959" r="1" fill="#3D427E"/>
<circle cx="1465.72" cy="338.959" r="1" fill="#3D427E"/>
<circle opacity="0.34" cx="1" cy="1" r="1" transform="matrix(1 0 0 -1 293.539 136.01)" fill="#22265E"/>
<circle opacity="0.34" cx="1" cy="1" r="1" transform="matrix(1 0 0 -1 172.406 125)" fill="#22265E"/>
<circle cx="1" cy="1" r="1" transform="matrix(1 0 0 -1 732.758 136.01)" fill="#22265E"/>
<circle cx="1" cy="1" r="1" transform="matrix(1 0 0 -1 1229.92 136.01)" fill="#22265E"/>
<circle opacity="0.34" cx="1" cy="1" r="1" transform="matrix(1 0 0 -1 360.656 136.01)" fill="#3D427E"/>
<circle opacity="0.34" cx="1" cy="1" r="1" transform="matrix(1 0 0 -1 239.516 125)" fill="#3D427E"/>
<circle cx="1" cy="1" r="1" transform="matrix(1 0 0 -1 799.836 136.01)" fill="#3D427E"/>
<circle cx="1" cy="1" r="1" transform="matrix(1 0 0 -1 1297.02 136.01)" fill="#3D427E"/>
<circle cx="1" cy="1" r="1" transform="matrix(1 0 0 -1 360.656 207.358)" fill="#3D427E"/>
<circle cx="1" cy="1" r="1" transform="matrix(1 0 0 -1 239.516 196.347)" fill="#3D427E"/>
<circle cx="1" cy="1" r="1" transform="matrix(1 0 0 -1 799.836 207.358)" fill="#3D427E"/>
<circle opacity="0.3" cx="1" cy="1" r="1" transform="matrix(1 0 0 -1 1297.02 207.358)" fill="#3D427E"/>
<circle cx="1" cy="1" r="1" transform="matrix(1 0 0 -1 439.953 229.89)" fill="#3D427E"/>
<circle cx="1" cy="1" r="1" transform="matrix(1 0 0 -1 879.141 229.89)" fill="#3D427E"/>
<circle cx="1" cy="1" r="1" transform="matrix(1 0 0 -1 1376.33 229.89)" fill="#3D427E"/>
<circle opacity="0.34" cx="1" cy="1" r="1" transform="matrix(1 0 0 -1 467.406 128.501)" fill="#3D427E"/>
<circle cx="1" cy="1" r="1" transform="matrix(1 0 0 -1 906.602 128.501)" fill="#3D427E"/>
<circle cx="1" cy="1" r="1" transform="matrix(1 0 0 -1 1403.79 128.501)" fill="#3D427E"/>
<circle cx="1" cy="1" r="1" transform="matrix(1 0 0 -1 430.805 278.705)" fill="#3D427E"/>
<circle cx="1" cy="1" r="1" transform="matrix(1 0 0 -1 869.992 278.705)" fill="#3D427E"/>
<circle cx="1" cy="1" r="1" transform="matrix(1 0 0 -1 1367.17 278.705)" fill="#3D427E"/>
<circle cx="1" cy="1" r="1" transform="matrix(1 0 0 -1 626.008 226.135)" fill="#3D427E" fill-opacity="0.5"/>
<circle cx="1" cy="1" r="1" transform="matrix(1 0 0 -1 1065.2 226.135)" fill="#3D427E"/>
<circle cx="1" cy="1" r="1" transform="matrix(1 0 0 -1 1562.38 226.135)" fill="#3D427E"/>
<circle cx="1" cy="1" r="1" transform="matrix(1 0 0 -1 522.289 169.808)" fill="#3D427E"/>
<circle opacity="0.3" cx="1" cy="1" r="1" transform="matrix(1 0 0 -1 961.508 169.808)" fill="#3D427E"/>
<circle cx="1" cy="1" r="1" transform="matrix(1 0 0 -1 1458.66 169.808)" fill="#3D427E"/>
<circle cx="1" cy="1" r="1" transform="matrix(1 0 0 -1 653.438 169.808)" fill="#3D427E" fill-opacity="0.5"/>
<circle opacity="0.3" cx="1" cy="1" r="1" transform="matrix(1 0 0 -1 1092.66 169.808)" fill="#3D427E"/>
<circle cx="1" cy="1" r="1" transform="matrix(1 0 0 -1 1589.81 169.808)" fill="#3D427E"/>
<circle cx="1" cy="1" r="1" transform="matrix(-1 0 0 1 1504.86 978.796)" fill="#22265E"/>
<circle opacity="0.1" cx="1" cy="1" r="1" transform="matrix(-1 0 0 1 1065.67 978.796)" fill="#22265E"/>
<ellipse cx="1" cy="0.5" rx="1" ry="0.5" transform="matrix(-1 0 0 1 914.5 931.297)" fill="#22265E"/>
<circle opacity="0.34" cx="1" cy="1" r="1" transform="matrix(-1 0 0 1 1541.48 828.592)" fill="#22265E"/>
<circle cx="1" cy="1" r="1" transform="matrix(-1 0 0 1 1102.26 828.592)" fill="#22265E"/>
<circle cx="1" cy="1" r="1" transform="matrix(-1 0 0 1 605.102 828.592)" fill="#22265E"/>
<circle cx="1" cy="1" r="1" transform="matrix(-1 0 0 1 1437.77 978.796)" fill="#3D427E"/>
<circle opacity="0.1" cx="1" cy="1" r="1" transform="matrix(-1 0 0 1 998.562 978.796)" fill="#3D427E"/>
<ellipse cx="1" cy="0.5" rx="1" ry="0.5" transform="matrix(-1 0 0 1 847.5 931.297)" fill="#3D427E"/>
<circle opacity="0.34" cx="1" cy="1" r="1" transform="matrix(-1 0 0 1 1474.38 828.592)" fill="#3D427E"/>
<circle cx="1" cy="1" r="1" transform="matrix(-1 0 0 1 1035.17 828.592)" fill="#3D427E"/>
<circle cx="1" cy="1" r="1" transform="matrix(-1 0 0 1 538.008 828.592)" fill="#3D427E"/>
<circle cx="1" cy="1" r="1" transform="matrix(-1 0 0 1 1437.77 907.449)" fill="#3D427E"/>
<circle cx="1" cy="1" r="1" transform="matrix(-1 0 0 1 998.562 907.449)" fill="#3D427E"/>
<circle cx="1" cy="1" r="1" transform="matrix(-1 0 0 1 501.414 907.449)" fill="#3D427E"/>
<circle cx="1" cy="1" r="1" transform="matrix(-1 0 0 1 1474.38 757.244)" fill="#3D427E"/>
<circle cx="1" cy="1" r="1" transform="matrix(-1 0 0 1 1595.5 746.233)" fill="#3D427E"/>
<circle cx="1" cy="1" r="1" transform="matrix(-1 0 0 1 1035.17 757.244)" fill="#3D427E"/>
<circle opacity="0.3" cx="1" cy="1" r="1" transform="matrix(-1 0 0 1 538.008 757.244)" fill="#3D427E"/>
<circle cx="1" cy="1" r="1" transform="matrix(-1 0 0 1 1358.46 884.918)" fill="#3D427E"/>
<circle opacity="0.4" cx="1" cy="1" r="1" transform="matrix(-1 0 0 1 919.266 884.918)" fill="#3D427E"/>
<circle opacity="0.2" cx="1" cy="1" r="1" transform="matrix(-1 0 0 1 422.109 884.918)" fill="#3D427E"/>
<circle cx="1" cy="1" r="1" transform="matrix(-1 0 0 1 1395.07 734.713)" fill="#3D427E"/>
<circle cx="1" cy="1" r="1" transform="matrix(-1 0 0 1 1516.2 723.703)" fill="#3D427E"/>
<circle cx="1" cy="1" r="1" transform="matrix(-1 0 0 1 955.875 734.713)" fill="#3D427E"/>
<circle cx="1" cy="1" r="1" transform="matrix(-1 0 0 1 458.695 734.713)" fill="#3D427E"/>
<circle opacity="0.34" cx="1" cy="1" r="1" transform="matrix(-1 0 0 1 1367.62 836.102)" fill="#3D427E"/>
<circle cx="1" cy="1" r="1" transform="matrix(-1 0 0 1 928.406 836.102)" fill="#3D427E"/>
<circle cx="1" cy="1" r="1" transform="matrix(-1 0 0 1 431.234 836.102)" fill="#3D427E"/>
<circle cx="1" cy="1" r="1" transform="matrix(-1 0 0 1 1404.22 685.896)" fill="#3D427E"/>
<circle cx="1" cy="1" r="1" transform="matrix(-1 0 0 1 1525.35 674.886)" fill="#3D427E"/>
<circle cx="1" cy="1" r="1" transform="matrix(-1 0 0 1 965.016 685.896)" fill="#3D427E"/>
<circle cx="1" cy="1" r="1" transform="matrix(-1 0 0 1 467.852 685.896)" fill="#3D427E"/>
<circle cx="1" cy="1" r="1" transform="matrix(-1 0 0 1 1172.43 888.674)" fill="#3D427E" fill-opacity="0.5"/>
<circle cx="1" cy="1" r="1" transform="matrix(-1 0 0 1 733.203 888.674)" fill="#3D427E"/>
<circle opacity="0.2" cx="1" cy="1" r="1" transform="matrix(-1 0 0 1 236.055 888.674)" fill="#3D427E"/>
<circle cx="1" cy="1" r="1" transform="matrix(-1 0 0 1 1209.01 738.468)" fill="#3D427E" fill-opacity="0.5"/>
<circle cx="1" cy="1" r="1" transform="matrix(-1 0 0 1 769.805 738.468)" fill="#3D427E"/>
<circle cx="1" cy="1" r="1" transform="matrix(-1 0 0 1 272.633 738.468)" fill="#3D427E"/>
<circle opacity="0.1" cx="1" cy="1" r="1" transform="matrix(-1 0 0 1 1266.97 1012.59)" fill="#3D427E"/>
<circle cx="1" cy="1" r="1" transform="matrix(-1 0 0 1 827.766 1012.59)" fill="#3D427E"/>
<circle cx="1" cy="1" r="1" transform="matrix(-1 0 0 1 330.586 1012.59)" fill="#3D427E"/>
<circle cx="1" cy="1" r="1" transform="matrix(-1 0 0 1 1303.57 862.387)" fill="#3D427E"/>
<circle cx="1" cy="1" r="1" transform="matrix(-1 0 0 1 864.352 862.387)" fill="#3D427E"/>
<circle cx="1" cy="1" r="1" transform="matrix(-1 0 0 1 367.203 862.387)" fill="#3D427E"/>
<circle cx="1" cy="1" r="1" transform="matrix(-1 0 0 1 1276.11 945)" fill="#3D427E"/>
<circle opacity="0.4" cx="1" cy="1" r="1" transform="matrix(-1 0 0 1 836.922 945)" fill="#3D427E"/>
<circle cx="1" cy="1" r="1" transform="matrix(-1 0 0 1 339.742 945)" fill="#3D427E"/>
<circle cx="1" cy="1" r="1" transform="matrix(-1 0 0 1 1312.73 794.795)" fill="#3D427E"/>
<circle opacity="0.3" cx="1" cy="1" r="1" transform="matrix(-1 0 0 1 873.508 794.795)" fill="#3D427E"/>
<circle cx="1" cy="1" r="1" transform="matrix(-1 0 0 1 376.352 794.795)" fill="#3D427E"/>
<circle cx="1" cy="1" r="1" transform="matrix(-1 0 0 1 1144.96 945)" fill="#3D427E"/>
<circle opacity="0.1" cx="1" cy="1" r="1" transform="matrix(-1 0 0 1 1065.67 978.796)" fill="#22265E"/>
<ellipse cx="1" cy="0.5" rx="1" ry="0.5" transform="matrix(-1 0 0 1 914.5 931.297)" fill="#22265E"/>
<circle opacity="0.1" cx="1" cy="1" r="1" transform="matrix(-1 0 0 1 998.562 978.796)" fill="#3D427E"/>
<ellipse cx="1" cy="0.5" rx="1" ry="0.5" transform="matrix(-1 0 0 1 847.5 931.297)" fill="#3D427E"/>
<circle cx="1" cy="1" r="1" transform="matrix(-1 0 0 1 1276.11 945)" fill="#3D427E"/>
<circle opacity="0.4" cx="1" cy="1" r="1" transform="matrix(-1 0 0 1 836.922 945)" fill="#3D427E"/>
<circle cx="1" cy="1" r="1" transform="matrix(-1 0 0 1 1144.96 945)" fill="#3D427E"/>
<circle opacity="0.1" cx="1" cy="1" r="1" transform="matrix(-1 0 0 1 1153.25 1027.8)" fill="#22265E"/>
<ellipse cx="1" cy="0.5" rx="1" ry="0.5" transform="matrix(-1 0 0 1 1002.08 980.297)" fill="#22265E"/>
<circle opacity="0.1" cx="1" cy="1" r="1" transform="matrix(-1 0 0 1 1086.14 1027.8)" fill="#3D427E"/>
<ellipse cx="1" cy="0.5" rx="1" ry="0.5" transform="matrix(-1 0 0 1 935.078 980.297)" fill="#3D427E"/>
<circle cx="1" cy="1" r="1" transform="matrix(-1 0 0 1 1363.69 994)" fill="#3D427E"/>
<circle opacity="0.4" cx="1" cy="1" r="1" transform="matrix(-1 0 0 1 924.5 994)" fill="#3D427E"/>
<circle cx="1" cy="1" r="1" transform="matrix(-1 0 0 1 1232.54 994)" fill="#3D427E"/>
<circle cx="1" cy="1" r="1" transform="matrix(-1 0 0 1 647.797 945)" fill="#3D427E"/>
<circle cx="1" cy="1" r="1" transform="matrix(-1 0 0 1 705.742 945)" fill="#3D427E"/>
<circle cx="1" cy="1" r="1" transform="matrix(-1 0 0 1 219.5 996.297)" fill="#3D427E"/>
<circle cx="1" cy="1" r="1" transform="matrix(-1 0 0 1 527.555 996.297)" fill="#3D427E"/>
<circle cx="1" cy="1" r="1" transform="matrix(-1 0 0 1 585.5 996.297)" fill="#3D427E"/>
<circle cx="1" cy="1" r="1" transform="matrix(-1 0 0 1 208.594 945)" fill="#3D427E"/>
<circle cx="1" cy="1" r="1" transform="matrix(-1 0 0 1 1181.58 794.795)" fill="#3D427E" fill-opacity="0.5"/>
<circle opacity="0.3" cx="1" cy="1" r="1" transform="matrix(-1 0 0 1 742.359 794.795)" fill="#3D427E"/>
<circle cx="1" cy="1" r="1" transform="matrix(-1 0 0 1 245.195 794.795)" fill="#3D427E"/>
<circle opacity="0.34" cx="1415.38" cy="591.846" r="1" transform="rotate(180 1415.38 591.846)" fill="#22265E"/>
<circle opacity="0.34" cx="1536.51" cy="580.836" r="1" transform="rotate(180 1536.51 580.836)" fill="#22265E"/>
<circle cx="976.156" cy="591.846" r="1" transform="rotate(180 976.156 591.846)" fill="#22265E"/>
<circle cx="478.992" cy="591.846" r="1" transform="rotate(180 478.992 591.846)" fill="#22265E"/>
<circle opacity="0.34" cx="1348.26" cy="591.846" r="1" transform="rotate(180 1348.26 591.846)" fill="#3D427E"/>
<circle opacity="0.34" cx="1469.4" cy="580.836" r="1" transform="rotate(180 1469.4 580.836)" fill="#3D427E"/>
<circle cx="909.078" cy="591.846" r="1" transform="rotate(180 909.078 591.846)" fill="#3D427E"/>
<circle cx="411.891" cy="591.846" r="1" transform="rotate(180 411.891 591.846)" fill="#3D427E"/>
<circle cx="1348.26" cy="663.194" r="1" transform="rotate(180 1348.26 663.194)" fill="#3D427E"/>
<circle cx="1469.4" cy="652.184" r="1" transform="rotate(180 1469.4 652.184)" fill="#3D427E"/>
<circle opacity="0.2" cx="1" cy="1" r="1" transform="matrix(-1 0 0 1 1507.02 390.325)" fill="#3D427E"/>
<circle cx="1" cy="1" r="1" transform="matrix(-1 0 0 1 1543.6 240.119)" fill="#3D427E"/>
<circle cx="1" cy="1" r="1" transform="matrix(-1 0 0 1 1479.56 446.652)" fill="#3D427E"/>
<circle cx="1" cy="1" r="1" transform="matrix(-1 0 0 1 1516.16 296.447)" fill="#3D427E"/>
<circle cx="1417.5" cy="183.623" r="1" transform="rotate(180 1417.5 183.623)" fill="#3D427E"/>
<circle cx="1521.22" cy="127.296" r="1" transform="rotate(180 1521.22 127.296)" fill="#3D427E"/>
<circle cx="1507.51" cy="716.732" r="1" fill="#3D427E"/>
<circle cx="1465.69" cy="683.191" r="1" fill="#3D427E"/>
<circle cx="1" cy="1" r="1" transform="matrix(-1 0 0 1 1475.19 927.357)" fill="#3D427E"/>
<circle cx="1" cy="1" r="1" transform="matrix(-1 0 0 1 1517.01 893.815)" fill="#3D427E"/>
<circle cx="1" cy="1" r="1" transform="matrix(-1 0 0 1 1526.16 844.998)" fill="#3D427E"/>
<circle cx="1470.21" cy="822.297" r="1" transform="rotate(180 1470.21 822.297)" fill="#3D427E"/>
<circle cx="1508.32" cy="886.846" r="1" fill="#3D427E"/>
<circle cx="1466.5" cy="853.304" r="1" fill="#3D427E"/>
<circle cx="1456.53" cy="634.374" r="1" fill="#3D427E"/>
<circle opacity="0.34" cx="1" cy="1" r="1" transform="matrix(1 0 0 -1 1443.38 540.324)" fill="#22265E"/>
<circle opacity="0.34" cx="1" cy="1" r="1" transform="matrix(1 0 0 -1 1510.48 540.324)" fill="#3D427E"/>
<circle cx="1" cy="1" r="1" transform="matrix(1 0 0 -1 1510.48 611.672)" fill="#3D427E"/>
<circle cx="909.078" cy="663.194" r="1" transform="rotate(180 909.078 663.194)" fill="#3D427E"/>
<circle opacity="0.3" cx="411.891" cy="663.194" r="1" transform="rotate(180 411.891 663.194)" fill="#3D427E"/>
<circle cx="1268.96" cy="685.725" r="1" transform="rotate(180 1268.96 685.725)" fill="#3D427E"/>
<circle cx="829.773" cy="685.725" r="1" transform="rotate(180 829.773 685.725)" fill="#3D427E"/>
<circle cx="332.586" cy="685.725" r="1" transform="rotate(180 332.586 685.725)" fill="#3D427E"/>
<circle opacity="0.34" cx="1241.51" cy="584.337" r="1" transform="rotate(180 1241.51 584.337)" fill="#3D427E"/>
<circle cx="802.312" cy="584.337" r="1" transform="rotate(180 802.312 584.337)" fill="#3D427E"/>
<circle cx="305.125" cy="584.337" r="1" transform="rotate(180 305.125 584.337)" fill="#3D427E"/>
<circle cx="1278.11" cy="734.542" r="1" transform="rotate(180 1278.11 734.542)" fill="#3D427E"/>
<circle cx="838.922" cy="734.542" r="1" transform="rotate(180 838.922 734.542)" fill="#3D427E"/>
<circle cx="341.742" cy="734.542" r="1" transform="rotate(180 341.742 734.542)" fill="#3D427E"/>
<circle cx="1082.91" cy="681.971" r="1" transform="rotate(180 1082.91 681.971)" fill="#3D427E" fill-opacity="0.5"/>
<circle cx="643.711" cy="681.971" r="1" transform="rotate(180 643.711 681.971)" fill="#3D427E"/>
<circle cx="146.531" cy="681.971" r="1" transform="rotate(180 146.531 681.971)" fill="#3D427E"/>
<circle cx="1186.62" cy="625.644" r="1" transform="rotate(180 1186.62 625.644)" fill="#3D427E"/>
<circle opacity="0.3" cx="747.406" cy="625.645" r="1" transform="rotate(180 747.406 625.645)" fill="#3D427E"/>
<circle cx="250.25" cy="625.645" r="1" transform="rotate(180 250.25 625.645)" fill="#3D427E"/>
<circle cx="1" cy="1" r="1" transform="matrix(-1 0 0 1 198.586 638.206)" fill="#22265E"/>
<circle opacity="0.34" cx="1" cy="1" r="1" transform="matrix(-1 0 0 1 235.203 488.002)" fill="#22265E"/>
<circle cx="1" cy="1" r="1" transform="matrix(-1 0 0 1 131.5 638.206)" fill="#3D427E"/>
<circle opacity="0.34" cx="1" cy="1" r="1" transform="matrix(-1 0 0 1 168.102 488.002)" fill="#3D427E"/>
<circle cx="1" cy="1" r="1" transform="matrix(-1 0 0 1 131.5 566.858)" fill="#3D427E"/>
<circle cx="1" cy="1" r="1" transform="matrix(-1 0 0 1 168.102 416.654)" fill="#3D427E"/>
<circle cx="1" cy="1" r="1" transform="matrix(-1 0 0 1 209.922 383.112)" fill="#3D427E"/>
<circle cx="1" cy="1" r="1" transform="matrix(-1 0 0 1 219.078 334.297)" fill="#3D427E"/>
<circle cx="132.008" cy="855.714" r="1" fill="#3D427E"/>
<circle cx="1" cy="1" r="1" transform="matrix(1 0 0 -1 256.109 799.217)" fill="#3D427E"/>
<circle cx="1" cy="1" r="1" transform="matrix(1 0 0 -1 152.391 742.891)" fill="#3D427E"/>
<circle cx="1055.48" cy="625.645" r="1" transform="rotate(180 1055.48 625.645)" fill="#3D427E" fill-opacity="0.5"/>
<circle opacity="0.3" cx="616.258" cy="625.645" r="1" transform="rotate(180 616.258 625.645)" fill="#3D427E"/>
<circle cx="119.102" cy="625.644" r="1" transform="rotate(180 119.102 625.644)" fill="#3D427E"/>
</g>
</svg>
