<svg width="150" height="32" viewBox="0 0 150 32" fill="none" xmlns="http://www.w3.org/2000/svg">
<g clip-path="url(#clip0_1_357)">
<path d="M52.9417 18.4313L52.0477 20.9615H51.9731C51.8241 20.391 51.551 19.5228 51.1039 18.4809L46.3109 6.44989H41.6172V25.6251H44.7215V13.7925C44.7215 13.0483 44.7215 12.2049 44.6967 11.1631C44.6718 10.6421 44.6222 10.2452 44.5973 9.94757H44.6718C44.8208 10.6918 44.9947 11.2375 45.1188 11.5848L50.8804 25.5755H53.0659L58.7778 11.4607C58.902 11.1383 59.0261 10.4933 59.1503 9.94757H59.2248C59.1503 11.3615 59.1006 12.6266 59.0758 13.3956V25.5507H62.3788V6.40028H57.8589L52.9417 18.4313ZM65.5079 11.808H68.7364V25.5507H65.5079V11.808ZM67.147 6.00338C66.6006 6.00338 66.1536 6.20183 65.7811 6.54912C65.4086 6.89641 65.2099 7.34292 65.2099 7.88865C65.2099 8.40958 65.4086 8.8561 65.7811 9.20338C66.1536 9.55067 66.6006 9.72431 67.147 9.72431C67.6933 9.72431 68.1652 9.52586 68.5129 9.20338C68.8854 8.8561 69.0841 8.40958 69.0841 7.88865C69.0841 7.36772 68.8854 6.92121 68.5129 6.54912C68.19 6.20183 67.7182 6.00338 67.147 6.00338ZM80.1851 11.684C79.589 11.56 78.9682 11.4856 78.3722 11.4856C76.9069 11.4856 75.5659 11.808 74.4483 12.453C73.3308 13.098 72.4367 13.991 71.8655 15.1073C71.2695 16.2483 70.9715 17.5631 70.9715 19.0763C70.9715 20.391 71.2695 21.5569 71.8407 22.6235C72.4119 23.6654 73.2066 24.5088 74.2745 25.0794C75.2927 25.6499 76.4847 25.9476 77.8258 25.9476C79.3655 25.9476 80.6818 25.6251 81.7248 25.0297L81.7496 25.0049V22.0282L81.6255 22.1274C81.1536 22.4747 80.6073 22.7724 80.0609 22.946C79.4897 23.1445 78.9682 23.2437 78.5212 23.2437C77.2298 23.2437 76.2116 22.8716 75.4914 22.053C74.7463 21.2592 74.3738 20.1677 74.3738 18.8034C74.3738 17.3894 74.7463 16.2731 75.5162 15.4545C76.2861 14.6359 77.3043 14.2142 78.546 14.2142C79.589 14.2142 80.6569 14.5615 81.6255 15.2561L81.7496 15.3553V12.2049L81.7248 12.1801C81.3026 12.0065 80.8308 11.808 80.1851 11.684ZM90.839 11.5848C90.0443 11.5848 89.2993 11.8328 88.6536 12.3538C88.1073 12.8003 87.7347 13.4452 87.4119 14.2142H87.3871V11.808H84.1586V25.5507H87.3871V18.5305C87.3871 17.3398 87.6354 16.3476 88.1818 15.6282C88.7281 14.884 89.4235 14.5119 90.2678 14.5119C90.5659 14.5119 90.8639 14.5863 91.2364 14.6359C91.5841 14.7352 91.8324 14.8344 92.0063 14.9584L92.1304 15.0576V11.8328L92.0559 11.808C91.8324 11.6592 91.3854 11.5848 90.839 11.5848ZM99.6304 11.5104C97.3705 11.5104 95.5576 12.1801 94.291 13.4949C92.9996 14.8096 92.3788 16.6204 92.3788 18.9026C92.3788 21.0359 93.0245 22.7724 94.2662 24.0375C95.5079 25.2778 97.1967 25.9228 99.3076 25.9228C101.518 25.9228 103.281 25.253 104.548 23.9135C105.839 22.5739 106.46 20.7879 106.46 18.5801C106.46 16.3972 105.864 14.6607 104.647 13.3956C103.48 12.1305 101.766 11.5104 99.6304 11.5104ZM102.213 22.0778C101.617 22.8468 100.673 23.2189 99.5063 23.2189C98.339 23.2189 97.3953 22.8468 96.7248 22.0282C96.0543 21.2592 95.7314 20.1429 95.7314 18.729C95.7314 17.2654 96.0791 16.1491 96.7248 15.3553C97.3953 14.5615 98.3142 14.1646 99.4814 14.1646C100.624 14.1646 101.518 14.5367 102.164 15.3057C102.809 16.0747 103.157 17.191 103.157 18.6545C103.107 20.1429 102.834 21.3088 102.213 22.0778ZM113.662 17.5135C112.644 17.0918 111.998 16.7693 111.7 16.4964C111.452 16.2483 111.327 15.9011 111.327 15.4545C111.327 15.0825 111.476 14.7104 111.849 14.4623C112.221 14.2142 112.644 14.0902 113.265 14.0902C113.811 14.0902 114.382 14.1894 114.928 14.3383C115.475 14.4871 115.971 14.7104 116.369 15.008L116.493 15.1073V12.0809L116.419 12.0561C116.046 11.9073 115.549 11.7584 114.953 11.6344C114.357 11.5352 113.811 11.4856 113.364 11.4856C111.824 11.4856 110.558 11.8576 109.564 12.6763C108.571 13.4452 108.099 14.4871 108.099 15.7026C108.099 16.3476 108.198 16.9181 108.422 17.3894C108.645 17.8607 108.968 18.3073 109.415 18.6794C109.862 19.0266 110.508 19.4235 111.402 19.7956C112.147 20.1181 112.718 20.3662 113.066 20.5646C113.414 20.7631 113.637 20.9863 113.811 21.16C113.935 21.3584 114.01 21.6065 114.01 21.929C114.01 22.8468 113.314 23.2933 111.899 23.2933C111.352 23.2933 110.781 23.1941 110.111 22.9708C109.44 22.7476 108.819 22.4251 108.298 22.053L108.173 21.9538V25.1042L108.248 25.129C108.72 25.3522 109.291 25.5011 109.986 25.6747C110.682 25.7987 111.303 25.898 111.849 25.898C113.513 25.898 114.879 25.5259 115.847 24.7073C116.841 23.9135 117.362 22.8964 117.362 21.5817C117.362 20.6638 117.114 19.8452 116.568 19.2251C115.847 18.6297 114.953 18.0096 113.662 17.5135ZM125.88 11.5104C123.62 11.5104 121.808 12.1801 120.541 13.4949C119.274 14.8096 118.629 16.6204 118.629 18.9026C118.629 21.0359 119.274 22.7724 120.516 24.0375C121.758 25.2778 123.447 25.9228 125.558 25.9228C127.768 25.9228 129.531 25.253 130.798 23.9135C132.089 22.5739 132.71 20.7879 132.71 18.5801C132.71 16.3972 132.114 14.6607 130.897 13.3956C129.73 12.1305 128.016 11.5104 125.88 11.5104ZM128.438 22.0778C127.842 22.8468 126.899 23.2189 125.731 23.2189C124.539 23.2189 123.621 22.8468 122.95 22.0282C122.279 21.2592 121.957 20.1429 121.957 18.729C121.957 17.2654 122.304 16.1491 122.95 15.3553C123.621 14.5615 124.539 14.1646 125.707 14.1646C126.824 14.1646 127.743 14.5367 128.389 15.3057C129.034 16.0747 129.382 17.191 129.382 18.6545C129.382 20.1429 129.059 21.3088 128.438 22.0778ZM149.97 14.4623V11.808H146.717V7.73982L146.617 7.76462L143.538 8.68245L143.463 8.70726V11.808H138.596V10.0716C138.596 9.2778 138.794 8.65765 139.142 8.26075C139.49 7.86385 140.011 7.6654 140.657 7.6654C141.104 7.6654 141.576 7.76462 142.097 7.98788L142.221 8.0623V5.2592L142.147 5.23439C141.7 5.08555 141.104 4.98633 140.334 4.98633C139.366 4.98633 138.521 5.20958 137.751 5.58168C136.981 6.00338 136.41 6.57393 135.988 7.34292C135.566 8.0871 135.342 8.93051 135.342 9.89796V11.808H133.082V14.4375H135.342V25.5507H138.596V14.4623H143.463V21.5321C143.463 24.4344 144.829 25.898 147.561 25.898C148.008 25.898 148.48 25.8235 148.927 25.7491C149.399 25.6499 149.746 25.5259 149.945 25.4266L149.97 25.4018V22.7476L149.846 22.8468C149.647 22.9708 149.473 23.0701 149.175 23.1445C148.927 23.2189 148.703 23.2437 148.529 23.2437C147.884 23.2437 147.437 23.0949 147.114 22.7228C146.816 22.3755 146.667 21.8049 146.667 20.9615V14.4623H149.97Z" fill="white"/>
<path d="M0 0H15.2235V15.2062H0V0Z" fill="white"/>
<path d="M16.8125 0H32.036V15.2062H16.8125V0Z" fill="white"/>
<path d="M0 16.7938H15.2235V32H0V16.7938Z" fill="white"/>
<path d="M16.8125 16.7939H32.036V32.0001H16.8125V16.7939Z" fill="white"/>
</g>
<defs>
<clipPath id="clip0_1_357">
<rect width="150" height="32" fill="white"/>
</clipPath>
</defs>
</svg>
