<svg width="185" height="24" viewBox="0 0 185 24" fill="none" xmlns="http://www.w3.org/2000/svg">
<g clip-path="url(#clip0_1_381)">
<path d="M80.2557 15.6003H92.4143L85.9751 5.20028L74.1364 23.9603H68.7771L83.1754 1.44028C84.2553 -0.119718 86.415 -0.479718 87.9348 0.600282C88.2548 0.840282 88.5348 1.08028 88.7748 1.40028L103.213 23.9603H97.8537L95.334 19.7603H83.0154L80.2557 15.6003ZM136.169 19.8003V0.240282H131.61V21.7203C131.61 22.3203 131.85 22.9203 132.29 23.3203C132.73 23.7603 133.33 24.0003 133.97 24.0003H154.727L157.447 19.8003H136.169ZM60.618 16.2803C65.0575 16.2803 68.6571 12.6803 68.6571 8.24028C68.6571 3.80028 65.0575 0.200282 60.618 0.200282H40.6603V23.9603H45.1798V4.44028H60.298C62.4178 4.44028 64.1376 6.16028 64.1376 8.28028C64.1376 10.4003 62.4178 12.1203 60.298 12.1203H47.4195L61.058 23.9603H67.6972L58.5382 16.2803H60.618ZM12.5836 23.9603H26.382C32.9412 23.8003 38.1006 18.3203 37.9406 11.8003C37.7806 5.48028 32.6612 0.400282 26.382 0.240282H12.5836C6.02432 0.0802817 0.544951 5.24028 0.38497 11.8003C0.224988 18.3603 5.38439 23.8003 11.9436 23.9603C12.1436 24.0003 12.3436 24.0003 12.5836 23.9603ZM26.062 19.8003H12.8635C8.62402 19.6803 5.3044 16.1203 5.42439 11.8803C5.54437 7.84028 8.82399 4.56028 12.8635 4.44028H26.062C30.3015 4.32028 33.8611 7.64028 33.9811 11.8803C34.1011 16.1203 30.7815 19.6803 26.5419 19.8003C26.382 19.8003 26.222 19.8003 26.062 19.8003ZM112.732 23.9603H126.81L129.49 19.8003H113.052C108.812 19.9203 105.253 16.6003 105.133 12.3603C105.013 8.12028 108.332 4.56028 112.572 4.44028C112.732 4.44028 112.892 4.44028 113.052 4.44028H126.45L129.17 0.240282H112.772C106.213 0.0802817 100.773 5.24028 100.613 11.8003C100.453 18.3603 105.613 23.8003 112.172 23.9603C112.332 24.0003 112.532 24.0003 112.732 23.9603ZM168.566 19.8003C165.126 19.8003 162.086 17.5203 161.166 14.2003H180.684L183.364 10.0003H161.166C162.086 6.68028 165.126 4.40028 168.566 4.40028H181.964L184.644 0.200282H168.246C161.686 0.400282 156.527 5.84028 156.687 12.4003C156.847 18.7203 161.926 23.8003 168.246 23.9603H182.324L185.004 19.8003H168.566Z" fill="white"/>
</g>
<defs>
<clipPath id="clip0_1_381">
<rect width="184.619" height="24" fill="white" transform="translate(0.381348)"/>
</clipPath>
</defs>
</svg>
